<svg width="563" height="540" viewBox="0 0 563 540" fill="none" xmlns="http://www.w3.org/2000/svg">
<path d="M416.554 179.134C400.051 155.128 337.806 149.951 302 149.051H291.993C258.432 121.103 215 79.4999 172.995 101.772C130.99 124.044 141.28 161.762 152.068 197.552C126.339 212.787 93.1193 241.899 86.9142 292.508C85.2805 305.831 94.6232 317.426 104.008 322.259C124.55 332.835 150.23 336.072 169.876 336.773C153.789 361.91 123.055 420.618 174.142 437.43C221.496 453.014 276.927 411.944 304.088 387.906C310.23 382.257 317.778 374.664 325 366L313.737 394.625C336.763 412.689 365.712 424.887 387.531 398.816C421.93 357.716 408.711 293.96 402.395 271.064C396.553 257.27 396 255.5 396 255.5L400.021 250.658C414.963 229.069 430.163 198.931 416.554 179.134Z" fill="#18DE2F"/>
<path d="M256.175 196.37C285.935 176.395 323 187 349.065 213.896C357.976 242.884 345.086 267.649 330.485 278.916C298.128 303.884 234.356 301.727 195 292.243C218.5 259 216.021 221.701 256.175 196.37Z" fill="white"/>
<path d="M272.806 204.77C289.515 190.293 314.798 192.115 329.258 208.839C343.717 225.563 341.868 250.844 325.128 265.286C308.415 279.706 283.18 277.859 268.742 261.161C254.305 244.463 256.124 219.226 272.806 204.77Z" fill="#A416D8"/>
<circle cx="308" cy="217" r="21" fill="white"/>
<path d="M399.254 117.05C399.254 117.05 431.398 122.475 453.758 161.205C476.119 199.935 464.746 230.484 464.746 230.484" stroke="#FF9A30" stroke-width="40" stroke-linecap="round"/>
<path d="M422.494 61.4346C422.494 61.4346 473.198 69.5022 508.014 129.806C542.831 190.11 524.466 238.054 524.466 238.054" stroke="#FF9A30" stroke-width="40" stroke-linecap="round"/>
</svg>
