<svg width="1453" height="490" viewBox="0 0 1453 490" fill="none" xmlns="http://www.w3.org/2000/svg">
<g clip-path="url(#clip0_35_512)">
<path d="M379.657 158.841C360.694 131.256 289.169 125.306 248.024 124.273H236.526C197.961 92.1575 148.054 44.3519 99.7866 69.9447C51.5194 95.5376 63.3434 138.879 75.7399 180.005C46.1749 197.51 8.00195 230.963 0.871779 289.117C-1.00546 304.427 9.7301 317.751 20.514 323.303C44.1189 335.457 73.627 339.176 96.2024 339.982C77.7173 368.866 42.4007 436.327 101.104 455.646C155.518 473.553 219.213 426.36 250.424 398.738C257.482 392.246 266.154 383.522 274.454 373.566L261.512 406.458C287.97 427.216 321.235 441.232 346.308 411.275C385.834 364.047 370.645 290.786 363.387 264.476C356.674 248.625 356.039 246.592 356.039 246.592L360.659 241.028C377.829 216.22 395.295 181.589 379.657 158.841Z" fill="#18DE2F"/>
<path d="M195.368 178.647C229.564 155.693 272.156 167.88 302.106 198.786C312.346 232.095 297.534 260.553 280.757 273.499C243.575 302.19 170.296 299.712 125.072 288.814C152.076 250.614 149.227 207.754 195.368 178.647Z" fill="white"/>
<path d="M214.479 188.299C233.678 171.664 262.731 173.757 279.346 192.974C295.962 212.192 293.836 241.242 274.601 257.837C255.396 274.407 226.398 272.285 209.808 253.097C193.218 233.909 195.309 204.91 214.479 188.299Z" fill="#A416D8"/>
<circle cx="254.919" cy="202.352" r="24.1309" fill="white"/>
<path d="M359.778 87.5C359.778 87.5 396.715 93.7338 422.408 138.238C448.103 182.742 435.034 217.846 435.034 217.846" stroke="#FF9A30" stroke-width="45.9636" stroke-linecap="round"/>
<path d="M386.484 23.5918C386.484 23.5918 444.747 32.8622 484.754 102.157C524.762 171.451 503.659 226.543 503.659 226.543" stroke="#FF9A30" stroke-width="45.9636" stroke-linecap="round"/>
</g>
<circle cx="749.405" cy="320.643" r="85.5937" fill="#FF9A30"/>
<path d="M610.103 27.4832H645.207V62.5866H610.103V27.4832ZM575 27.4832H610.103V62.5866H575V27.4832ZM575 62.5866H610.103V97.6899H575V62.5866ZM575 97.6899H610.103V132.793H575V97.6899ZM575 132.793H610.103V167.897H575V132.793ZM575 167.897H610.103V203H575V167.897ZM610.103 167.897H645.207V203H610.103V167.897ZM668.623 167.897H703.726V203H668.623V167.897ZM668.623 132.793H703.726V167.897H668.623V132.793ZM668.623 97.6899H703.726V132.793H668.623V97.6899ZM668.623 62.5866H703.726V97.6899H668.623V62.5866ZM703.726 27.4832H738.83V62.5866H703.726V27.4832ZM738.83 62.5866H773.933V97.6899H738.83V62.5866ZM738.83 97.6899H773.933V132.793H738.83V97.6899ZM738.83 132.793H773.933V167.897H738.83V132.793ZM738.83 167.897H773.933V203H738.83V167.897ZM703.726 97.6899H738.83V132.793H703.726V97.6899ZM797.315 27.4832H832.419V62.5866H797.315V27.4832ZM797.315 62.5866H832.419V97.6899H797.315V62.5866ZM797.315 97.6899H832.419V132.793H797.315V97.6899ZM797.315 132.793H832.419V167.897H797.315V132.793ZM797.315 167.897H832.419V203H797.315V167.897ZM832.419 27.4832H867.522V62.5866H832.419V27.4832ZM867.522 27.4832H902.625V62.5866H867.522V27.4832ZM867.522 62.5866H902.625V97.6899H867.522V62.5866ZM867.522 132.793H902.625V167.897H867.522V132.793ZM867.522 167.897H902.625V203H867.522V167.897ZM832.419 167.897H867.522V203H832.419V167.897ZM832.419 97.6899H867.522V132.793H832.419V97.6899ZM926.007 27.4832H961.111V62.5866H926.007V27.4832ZM926.007 62.5866H961.111V97.6899H926.007V62.5866ZM926.007 97.6899H961.111V132.793H926.007V97.6899ZM926.007 132.793H961.111V167.897H926.007V132.793ZM926.007 167.897H961.111V203H926.007V167.897ZM961.111 27.4832H996.214V62.5866H961.111V27.4832ZM996.214 27.4832H1031.32V62.5866H996.214V27.4832ZM996.214 62.5866H1031.32V97.6899H996.214V62.5866ZM996.214 132.793H1031.32V167.897H996.214V132.793ZM996.214 167.897H1031.32V203H996.214V167.897ZM961.111 167.897H996.214V203H961.111V167.897ZM961.111 97.6899H996.214V132.793H961.111V97.6899ZM1054.7 167.897H1089.8V203H1054.7V167.897ZM1054.7 132.793H1089.8V167.897H1054.7V132.793ZM1054.7 97.6899H1089.8V132.793H1054.7V97.6899ZM1054.7 62.5866H1089.8V97.6899H1054.7V62.5866ZM1089.8 27.4832H1124.91V62.5866H1089.8V27.4832ZM1124.91 62.5866H1160.01V97.6899H1124.91V62.5866ZM1124.91 97.6899H1160.01V132.793H1124.91V97.6899ZM1124.91 132.793H1160.01V167.897H1124.91V132.793ZM1124.91 167.897H1160.01V203H1124.91V167.897ZM1089.8 97.6899H1124.91V132.793H1089.8V97.6899ZM1253.6 27.4832H1288.7V62.5866H1253.6V27.4832ZM1218.5 27.4832H1253.6V62.5866H1218.5V27.4832ZM1183.39 27.4832H1218.5V62.5866H1183.39V27.4832ZM1183.39 62.5866H1218.5V97.6899H1183.39V62.5866ZM1183.39 97.6899H1218.5V132.793H1183.39V97.6899ZM1183.39 132.793H1218.5V167.897H1183.39V132.793ZM1183.39 167.897H1218.5V203H1183.39V167.897ZM1218.5 167.897H1253.6V203H1218.5V167.897ZM1253.6 132.793H1288.7V167.897H1253.6V132.793ZM1253.6 97.6899H1288.7V132.793H1253.6V97.6899ZM1312.08 27.4832H1347.19V62.5866H1312.08V27.4832ZM1312.08 62.5866H1347.19V97.6899H1312.08V62.5866ZM1312.08 97.6899H1347.19V132.793H1312.08V97.6899ZM1312.08 132.793H1347.19V167.897H1312.08V132.793ZM1312.08 167.897H1347.19V203H1312.08V167.897ZM1347.19 27.4832H1382.29V62.5866H1347.19V27.4832ZM1347.19 167.897H1382.29V203H1347.19V167.897ZM1347.19 97.6899H1382.29V132.793H1347.19V97.6899ZM1382.29 27.4832H1417.39V62.5866H1382.29V27.4832ZM1382.29 167.897H1417.39V203H1382.29V167.897Z" fill="black"/>
<path d="M855.593 230.848H890.696V265.952H855.593V230.848ZM890.696 230.848H925.799V265.952H890.696V230.848ZM925.799 230.848H960.903V265.952H925.799V230.848ZM890.696 265.952H925.799V301.055H890.696V265.952ZM890.696 301.055H925.799V336.159H890.696V301.055ZM890.696 336.159H925.799V371.262H890.696V336.159ZM890.696 371.262H925.799V406.365H890.696V371.262ZM984.285 230.848H1019.39V265.952H984.285V230.848ZM1019.39 230.848H1054.49V265.952H1019.39V230.848ZM1054.49 230.848H1089.6V265.952H1054.49V230.848ZM1054.49 265.952H1089.6V301.055H1054.49V265.952ZM1054.49 301.055H1089.6V336.159H1054.49V301.055ZM1054.49 336.159H1089.6V371.262H1054.49V336.159ZM1054.49 371.262H1089.6V406.365H1054.49V371.262ZM1019.39 371.262H1054.49V406.365H1019.39V371.262ZM984.285 371.262H1019.39V406.365H984.285V371.262ZM984.285 336.159H1019.39V371.262H984.285V336.159ZM984.285 301.055H1019.39V336.159H984.285V301.055ZM984.285 265.952H1019.39V301.055H984.285V265.952ZM1112.98 230.848H1148.08V265.952H1112.98V230.848ZM1112.98 265.952H1148.08V301.055H1112.98V265.952ZM1112.98 301.055H1148.08V336.159H1112.98V301.055ZM1112.98 336.159H1148.08V371.262H1112.98V336.159ZM1148.08 371.262H1183.18V406.365H1148.08V371.262ZM1183.18 336.159H1218.29V371.262H1183.18V336.159ZM1183.18 301.055H1218.29V336.159H1183.18V301.055ZM1183.18 265.952H1218.29V301.055H1183.18V265.952ZM1183.18 230.848H1218.29V265.952H1183.18V230.848ZM1218.29 371.262H1253.39V406.365H1218.29V371.262ZM1253.39 336.159H1288.49V371.262H1253.39V336.159ZM1253.39 301.055H1288.49V336.159H1253.39V301.055ZM1253.39 265.952H1288.49V301.055H1253.39V265.952ZM1253.39 230.848H1288.49V265.952H1253.39V230.848ZM1312.18 371.262H1347.29V406.365H1312.18V371.262ZM1312.18 336.159H1347.29V371.262H1312.18V336.159ZM1312.18 301.055H1347.29V336.159H1312.18V301.055ZM1312.18 265.952H1347.29V301.055H1312.18V265.952ZM1347.29 230.848H1382.39V265.952H1347.29V230.848ZM1382.39 265.952H1417.49V301.055H1382.39V265.952ZM1382.39 301.055H1417.49V336.159H1382.39V301.055ZM1382.39 336.159H1417.49V371.262H1382.39V336.159ZM1382.39 371.262H1417.49V406.365H1382.39V371.262ZM1312.18 230.848H1347.29V265.952H1312.18V230.848Z" fill="black"/>
<path d="M583.547 465.85C581.771 465.85 580.363 465.377 579.325 464.431C578.299 463.474 577.786 462.188 577.786 460.573C577.786 459.166 578.241 458.018 579.152 457.13C580.075 456.231 581.476 455.602 583.357 455.244C584.083 455.106 584.821 454.991 585.571 454.898C586.321 454.806 587.047 454.731 587.751 454.674C588.455 454.604 589.095 454.558 589.672 454.535V453.082C589.672 451.663 589.343 450.648 588.685 450.037C588.039 449.425 587.03 449.12 585.658 449.12C584.216 449.12 583.126 449.42 582.388 450.019C581.661 450.608 581.321 451.623 581.367 453.065H578.356C578.218 451.727 578.431 450.562 578.997 449.57C579.573 448.566 580.433 447.788 581.574 447.234C582.728 446.68 584.095 446.404 585.675 446.404C588.005 446.404 589.77 446.98 590.969 448.134C592.169 449.276 592.768 450.96 592.768 453.186V465.643H589.689L589.672 461.542C589.429 462.384 589.014 463.134 588.426 463.791C587.838 464.437 587.122 464.945 586.28 465.314C585.45 465.671 584.539 465.85 583.547 465.85ZM584.464 463.307C585.237 463.307 585.992 463.163 586.73 462.874C587.48 462.574 588.126 462.188 588.668 461.715C589.21 461.231 589.545 460.712 589.672 460.158V456.49C589.256 456.513 588.772 456.559 588.218 456.629C587.676 456.686 587.134 456.761 586.592 456.854C586.05 456.934 585.571 457.021 585.156 457.113C583.679 457.436 582.647 457.851 582.059 458.359C581.471 458.866 581.177 459.547 581.177 460.4C581.177 461.3 581.459 462.009 582.024 462.528C582.601 463.036 583.414 463.295 584.464 463.307ZM607.184 465.902C605.985 465.902 604.952 465.712 604.087 465.331C603.234 464.951 602.576 464.357 602.115 463.549C601.665 462.73 601.44 461.669 601.44 460.366V452.044C601.44 451.732 601.492 451.404 601.596 451.058C601.7 450.712 601.867 450.406 602.098 450.141C602.34 449.875 602.657 449.714 603.049 449.656L601.423 447.511L601.492 446.923L602.271 440.14H604.779V459.864C604.779 461.087 605.027 461.9 605.523 462.303C606.031 462.696 606.867 462.892 608.032 462.892C608.828 462.892 609.514 462.846 610.091 462.753C610.679 462.661 611.198 462.54 611.648 462.39C612.109 462.24 612.548 462.079 612.963 461.905V464.985C612.271 465.239 611.469 465.458 610.558 465.643C609.658 465.816 608.534 465.902 607.184 465.902ZM597.028 449.656V446.75H611.354V449.656H597.028ZM627.742 465.902C626.496 465.902 625.441 465.718 624.576 465.348C623.722 464.979 623.071 464.391 622.621 463.584C622.182 462.765 621.963 461.692 621.963 460.366V443.41C621.963 442.868 622.067 442.442 622.275 442.13C622.494 441.819 622.8 441.64 623.192 441.594H616.392V438.722H625.337L625.302 459.864C625.302 461.075 625.516 461.882 625.943 462.286C626.381 462.69 627.159 462.892 628.278 462.892C629.339 462.892 630.233 462.799 630.96 462.615C631.698 462.43 632.39 462.194 633.036 461.905V464.985C632.402 465.239 631.623 465.458 630.7 465.643C629.778 465.816 628.792 465.902 627.742 465.902ZM642.677 465.85C640.901 465.85 639.493 465.377 638.455 464.431C637.429 463.474 636.915 462.188 636.915 460.573C636.915 459.166 637.371 458.018 638.282 457.13C639.205 456.231 640.606 455.602 642.486 455.244C643.213 455.106 643.951 454.991 644.701 454.898C645.451 454.806 646.177 454.731 646.881 454.674C647.585 454.604 648.225 454.558 648.801 454.535V453.082C648.801 451.663 648.473 450.648 647.815 450.037C647.169 449.425 646.16 449.12 644.788 449.12C643.346 449.12 642.256 449.42 641.518 450.019C640.791 450.608 640.451 451.623 640.497 453.065H637.486C637.348 451.727 637.561 450.562 638.127 449.57C638.703 448.566 639.563 447.788 640.704 447.234C641.858 446.68 643.225 446.404 644.805 446.404C647.135 446.404 648.899 446.98 650.099 448.134C651.299 449.276 651.898 450.96 651.898 453.186V465.643H648.819L648.801 461.542C648.559 462.384 648.144 463.134 647.556 463.791C646.968 464.437 646.252 464.945 645.41 465.314C644.58 465.671 643.669 465.85 642.677 465.85ZM643.594 463.307C644.367 463.307 645.122 463.163 645.86 462.874C646.61 462.574 647.256 462.188 647.798 461.715C648.34 461.231 648.675 460.712 648.801 460.158V456.49C648.386 456.513 647.902 456.559 647.348 456.629C646.806 456.686 646.264 456.761 645.722 456.854C645.18 456.934 644.701 457.021 644.286 457.113C642.809 457.436 641.777 457.851 641.189 458.359C640.601 458.866 640.306 459.547 640.306 460.4C640.306 461.3 640.589 462.009 641.154 462.528C641.731 463.036 642.544 463.295 643.594 463.307ZM657.162 465.643V446.732H659.947L660.276 453.584L659.947 452.424C660.201 450.475 660.858 448.981 661.92 447.943C662.981 446.894 664.371 446.369 666.089 446.369C667.842 446.369 669.18 446.934 670.103 448.064C671.037 449.195 671.505 450.821 671.505 452.943V465.643H668.286V453.999C668.286 452.384 668.021 451.213 667.491 450.487C666.972 449.748 666.124 449.379 664.947 449.379C663.967 449.379 663.079 449.662 662.283 450.227C661.487 450.781 660.853 451.554 660.38 452.545V465.643H657.162ZM686.024 465.902C684.825 465.902 683.792 465.712 682.927 465.331C682.074 464.951 681.416 464.357 680.955 463.549C680.505 462.73 680.28 461.669 680.28 460.366V452.044C680.28 451.732 680.332 451.404 680.436 451.058C680.54 450.712 680.707 450.406 680.938 450.141C681.18 449.875 681.497 449.714 681.889 449.656L680.263 447.511L680.332 446.923L681.111 440.14H683.619V459.864C683.619 461.087 683.867 461.9 684.363 462.303C684.871 462.696 685.707 462.892 686.872 462.892C687.668 462.892 688.354 462.846 688.931 462.753C689.519 462.661 690.038 462.54 690.488 462.39C690.949 462.24 691.388 462.079 691.803 461.905V464.985C691.111 465.239 690.309 465.458 689.398 465.643C688.498 465.816 687.374 465.902 686.024 465.902ZM675.868 449.656V446.75H690.194V449.656H675.868ZM701.807 465.85C700.03 465.85 698.623 465.377 697.585 464.431C696.559 463.474 696.045 462.188 696.045 460.573C696.045 459.166 696.501 458.018 697.412 457.13C698.335 456.231 699.736 455.602 701.616 455.244C702.343 455.106 703.081 454.991 703.831 454.898C704.581 454.806 705.307 454.731 706.011 454.674C706.715 454.604 707.355 454.558 707.931 454.535V453.082C707.931 451.663 707.603 450.648 706.945 450.037C706.299 449.425 705.29 449.12 703.917 449.12C702.476 449.12 701.386 449.42 700.648 450.019C699.921 450.608 699.581 451.623 699.627 453.065H696.616C696.478 451.727 696.691 450.562 697.256 449.57C697.833 448.566 698.692 447.788 699.834 447.234C700.988 446.68 702.355 446.404 703.935 446.404C706.265 446.404 708.029 446.98 709.229 448.134C710.429 449.276 711.028 450.96 711.028 453.186V465.643H707.949L707.931 461.542C707.689 462.384 707.274 463.134 706.686 463.791C706.097 464.437 705.382 464.945 704.54 465.314C703.71 465.671 702.799 465.85 701.807 465.85ZM702.724 463.307C703.496 463.307 704.252 463.163 704.99 462.874C705.74 462.574 706.386 462.188 706.928 461.715C707.47 461.231 707.804 460.712 707.931 460.158V456.49C707.516 456.513 707.032 456.559 706.478 456.629C705.936 456.686 705.394 456.761 704.852 456.854C704.31 456.934 703.831 457.021 703.416 457.113C701.939 457.436 700.907 457.851 700.319 458.359C699.731 458.866 699.436 459.547 699.436 460.4C699.436 461.3 699.719 462.009 700.284 462.528C700.861 463.036 701.674 463.295 702.724 463.307ZM721.499 452.649V449.725H722.191C722.514 449.725 722.757 449.633 722.918 449.449C723.091 449.252 723.206 448.895 723.264 448.376C723.333 447.857 723.368 447.113 723.368 446.144C723.379 445.348 723.443 444.794 723.558 444.483C723.674 444.16 724.014 443.935 724.579 443.808H721.413V438.722H726.102V445.331C726.102 447.868 725.79 449.725 725.167 450.902C724.544 452.067 723.535 452.649 722.14 452.649H721.499ZM743.268 465.937C742.369 465.937 741.48 465.839 740.604 465.643C739.727 465.458 738.92 465.152 738.182 464.726C737.443 464.287 736.838 463.699 736.365 462.961C735.904 462.223 735.627 461.3 735.535 460.193H738.856C738.972 461.277 739.462 462.061 740.327 462.546C741.192 463.03 742.184 463.272 743.303 463.272C744.595 463.272 745.621 463.094 746.382 462.736C747.155 462.367 747.542 461.669 747.542 460.642C747.542 460.031 747.357 459.535 746.988 459.155C746.63 458.774 746.106 458.457 745.414 458.203C744.733 457.938 743.903 457.684 742.922 457.442C742.115 457.246 741.313 457.027 740.517 456.784C739.733 456.531 739.018 456.202 738.372 455.798C737.738 455.394 737.23 454.858 736.849 454.189C736.469 453.52 736.278 452.667 736.278 451.629C736.278 450.602 736.55 449.697 737.092 448.912C737.645 448.128 738.441 447.517 739.479 447.078C740.517 446.64 741.775 446.421 743.251 446.421C744.439 446.421 745.54 446.605 746.555 446.974C747.582 447.332 748.418 447.915 749.064 448.722C749.722 449.518 750.085 450.579 750.154 451.905H746.919C746.884 451.352 746.734 450.861 746.469 450.435C746.204 450.008 745.806 449.673 745.275 449.431C744.745 449.189 744.064 449.068 743.234 449.068C742.472 449.068 741.803 449.149 741.227 449.31C740.65 449.472 740.2 449.737 739.877 450.106C739.554 450.475 739.393 450.971 739.393 451.594C739.393 452.205 739.583 452.707 739.964 453.099C740.356 453.491 740.892 453.814 741.573 454.068C742.253 454.31 743.032 454.541 743.908 454.76C744.67 454.945 745.454 455.164 746.261 455.418C747.069 455.671 747.813 456 748.493 456.404C749.174 456.807 749.722 457.332 750.137 457.978C750.564 458.612 750.777 459.414 750.777 460.383C750.765 462.044 750.16 463.388 748.96 464.414C747.772 465.429 745.875 465.937 743.268 465.937ZM781.823 465.297L787.377 441.006H790.214L784.678 465.297H781.823ZM773.138 459.535V457.13H789.989V459.535H773.138ZM774.747 465.297L780.283 441.006H783.121L777.602 465.297H774.747ZM774.764 449.691V447.286H791.823V449.691H774.764ZM801.395 464.414V447.269C801.395 446.519 801.418 445.798 801.464 445.106C801.51 444.414 801.573 443.71 801.654 442.995L801.706 440.486H804.768V464.414H801.395ZM794.37 465.643V462.753H810.997V465.643H794.37ZM793.004 446.732V443.635C794.007 443.901 794.964 444.004 795.876 443.947C796.787 443.889 797.623 443.705 798.384 443.393C799.145 443.082 799.809 442.678 800.374 442.182C800.951 441.674 801.395 441.109 801.706 440.486L801.654 442.995C801.458 444.033 801.026 444.858 800.357 445.469C799.699 446.069 798.926 446.496 798.038 446.75C797.162 447.003 796.273 447.119 795.374 447.096C794.474 447.073 793.684 446.951 793.004 446.732ZM841.61 465.902C840.007 465.902 838.583 465.527 837.337 464.778C836.103 464.016 835.134 462.909 834.43 461.456C833.727 459.991 833.375 458.203 833.375 456.092C833.375 454.062 833.738 452.326 834.465 450.885C835.192 449.431 836.178 448.318 837.424 447.545C838.669 446.773 840.065 446.386 841.61 446.386C843.26 446.386 844.702 446.773 845.936 447.545C847.17 448.318 848.127 449.431 848.808 450.885C849.5 452.326 849.846 454.062 849.846 456.092C849.846 458.215 849.477 460.008 848.739 461.473C848.012 462.926 847.026 464.028 845.78 464.778C844.534 465.527 843.145 465.902 841.61 465.902ZM841.61 463.065C843.075 463.065 844.263 462.494 845.175 461.352C846.097 460.198 846.559 458.445 846.559 456.092C846.559 453.855 846.109 452.153 845.209 450.988C844.321 449.812 843.121 449.224 841.61 449.224C840.146 449.224 838.952 449.812 838.029 450.988C837.118 452.153 836.662 453.855 836.662 456.092C836.662 458.364 837.118 460.095 838.029 461.283C838.952 462.471 840.146 463.065 841.61 463.065ZM852.964 465.643V463.03H866.13V465.643H852.964ZM852.774 449.708V446.732H858.31L858.431 449.708H852.774ZM856.666 465.297V451.542C856.666 450.908 856.77 450.464 856.978 450.21C857.197 449.956 857.549 449.789 858.033 449.708L856.666 448.687V446.732H859.452L859.677 451.802C859.965 450.717 860.421 449.772 861.044 448.964C861.666 448.145 862.399 447.511 863.241 447.061C864.083 446.6 864.959 446.369 865.871 446.369C867.439 446.369 868.656 446.951 869.521 448.116C870.386 449.27 870.79 451.035 870.732 453.411H867.584C867.56 451.946 867.312 450.908 866.84 450.296C866.378 449.685 865.634 449.379 864.608 449.379C863.685 449.379 862.78 449.737 861.891 450.452C861.003 451.156 860.334 452.009 859.884 453.013V461.663C859.884 462.032 859.798 462.332 859.625 462.563C859.463 462.782 859.198 462.938 858.829 463.03L859.884 463.67V465.297H856.666ZM881.411 473.48C879.658 473.48 878.112 473.255 876.774 472.805C875.448 472.355 874.41 471.715 873.66 470.885C872.91 470.066 872.535 469.097 872.535 467.978C872.535 467.194 872.708 466.508 873.055 465.919C873.412 465.343 873.908 464.881 874.542 464.535C875.177 464.178 875.909 463.97 876.74 463.912L877.466 463.999C877.178 464.184 876.895 464.408 876.619 464.674C876.353 464.939 876.134 465.279 875.961 465.694C875.788 466.121 875.702 466.652 875.702 467.286C875.702 467.909 875.869 468.48 876.203 468.999C876.549 469.518 877.138 469.933 877.968 470.245C878.799 470.568 879.935 470.729 881.376 470.729C883.257 470.729 884.618 470.441 885.46 469.864C886.302 469.287 886.723 468.474 886.723 467.425C886.723 466.744 886.498 466.242 886.048 465.919C885.598 465.596 884.716 465.348 883.401 465.175L878.92 464.587C877.397 464.391 876.261 464.097 875.511 463.705C874.773 463.301 874.283 462.869 874.041 462.407C873.81 461.934 873.695 461.502 873.695 461.11C873.695 460.544 873.839 460.072 874.127 459.691C874.427 459.31 874.802 459.01 875.252 458.791C875.713 458.561 876.186 458.405 876.67 458.324C877.166 458.232 877.605 458.203 877.985 458.238C877.593 458.399 877.276 458.624 877.034 458.912C876.792 459.189 876.67 459.581 876.67 460.089C876.67 460.631 876.89 461.04 877.328 461.317C877.778 461.583 878.533 461.784 879.594 461.923L884.093 462.476C885.684 462.684 886.901 463.042 887.743 463.549C888.597 464.045 889.179 464.628 889.491 465.297C889.802 465.966 889.958 466.663 889.958 467.39C889.958 468.393 889.75 469.276 889.335 470.037C888.931 470.798 888.349 471.433 887.588 471.94C886.838 472.448 885.938 472.828 884.889 473.082C883.851 473.347 882.691 473.48 881.411 473.48ZM881.29 458.999C879.098 458.999 877.357 458.434 876.065 457.303C874.773 456.173 874.127 454.65 874.127 452.736C874.127 450.787 874.779 449.247 876.082 448.116C877.397 446.974 879.145 446.415 881.325 446.438C882.743 446.45 883.983 446.709 885.044 447.217C886.117 447.724 886.953 448.445 887.553 449.379C888.153 450.314 888.453 451.432 888.453 452.736C888.453 454.662 887.807 456.19 886.515 457.321C885.235 458.439 883.493 458.999 881.29 458.999ZM881.325 456.386C882.686 456.386 883.712 456.075 884.404 455.452C885.096 454.818 885.442 453.907 885.442 452.718C885.442 451.554 885.09 450.654 884.387 450.019C883.683 449.374 882.639 449.051 881.255 449.051C879.86 449.051 878.822 449.362 878.141 449.985C877.472 450.608 877.138 451.513 877.138 452.701C877.138 453.878 877.489 454.789 878.193 455.435C878.897 456.069 879.94 456.386 881.325 456.386ZM883.383 447.113L883.158 446.94C883.262 446.029 883.533 445.279 883.972 444.691C884.421 444.091 884.969 443.647 885.615 443.358C886.261 443.059 886.93 442.909 887.622 442.909C887.98 442.909 888.262 442.92 888.47 442.943C888.689 442.966 888.868 443.007 889.006 443.064V446.161C888.649 446.104 888.314 446.057 888.003 446.023C887.691 445.988 887.317 445.971 886.878 445.971C886.417 445.971 885.984 446 885.581 446.057C885.177 446.115 884.796 446.225 884.439 446.386C884.081 446.548 883.729 446.79 883.383 447.113ZM898.906 465.85C897.13 465.85 895.723 465.377 894.685 464.431C893.658 463.474 893.145 462.188 893.145 460.573C893.145 459.166 893.601 458.018 894.512 457.13C895.435 456.231 896.836 455.602 898.716 455.244C899.443 455.106 900.181 454.991 900.931 454.898C901.68 454.806 902.407 454.731 903.111 454.674C903.814 454.604 904.454 454.558 905.031 454.535V453.082C905.031 451.663 904.702 450.648 904.045 450.037C903.399 449.425 902.39 449.12 901.017 449.12C899.575 449.12 898.485 449.42 897.747 450.019C897.021 450.608 896.68 451.623 896.727 453.065H893.716C893.578 451.727 893.791 450.562 894.356 449.57C894.933 448.566 895.792 447.788 896.934 447.234C898.088 446.68 899.454 446.404 901.035 446.404C903.364 446.404 905.129 446.98 906.329 448.134C907.528 449.276 908.128 450.96 908.128 453.186V465.643H905.048L905.031 461.542C904.789 462.384 904.374 463.134 903.785 463.791C903.197 464.437 902.482 464.945 901.64 465.314C900.81 465.671 899.898 465.85 898.906 465.85ZM899.823 463.307C900.596 463.307 901.352 463.163 902.09 462.874C902.84 462.574 903.486 462.188 904.028 461.715C904.57 461.231 904.904 460.712 905.031 460.158V456.49C904.616 456.513 904.131 456.559 903.578 456.629C903.036 456.686 902.494 456.761 901.951 456.854C901.409 456.934 900.931 457.021 900.515 457.113C899.039 457.436 898.007 457.851 897.419 458.359C896.83 458.866 896.536 459.547 896.536 460.4C896.536 461.3 896.819 462.009 897.384 462.528C897.961 463.036 898.774 463.295 899.823 463.307ZM913.391 465.643V446.732H916.177L916.506 453.584L916.177 452.424C916.431 450.475 917.088 448.981 918.149 447.943C919.21 446.894 920.6 446.369 922.319 446.369C924.072 446.369 925.41 446.934 926.333 448.064C927.267 449.195 927.734 450.821 927.734 452.943V465.643H924.516V453.999C924.516 452.384 924.251 451.213 923.72 450.487C923.201 449.748 922.354 449.379 921.177 449.379C920.197 449.379 919.308 449.662 918.513 450.227C917.717 450.781 917.082 451.554 916.609 452.545V465.643H913.391ZM939.918 465.193V451.836C939.918 451.259 940.022 450.775 940.23 450.383C940.437 449.979 940.841 449.754 941.441 449.708L939.918 449.12L939.797 447.649L943.084 446.767L943.032 465.193H939.918ZM933.759 465.643V463.03H948.655V465.643H933.759ZM933.24 449.708V446.767H943.084L942.271 449.708H933.24ZM941.354 443.445C940.651 443.445 940.051 443.203 939.555 442.718C939.07 442.234 938.828 441.605 938.828 440.832C938.828 440.048 939.07 439.414 939.555 438.929C940.051 438.433 940.651 438.185 941.354 438.185C942.058 438.185 942.652 438.433 943.136 438.929C943.632 439.414 943.88 440.048 943.88 440.832C943.88 441.605 943.632 442.234 943.136 442.718C942.64 443.203 942.046 443.445 941.354 443.445ZM960.441 465.954C958.734 465.954 957.252 465.556 955.995 464.76C954.738 463.953 953.757 462.822 953.054 461.369C952.362 459.904 952.016 458.18 952.016 456.196C952.016 454.108 952.367 452.338 953.071 450.885C953.786 449.42 954.766 448.307 956.012 447.545C957.269 446.784 958.7 446.404 960.303 446.404C961.883 446.404 963.221 446.738 964.317 447.407C965.413 448.076 966.249 448.964 966.825 450.071C967.402 451.179 967.702 452.39 967.725 453.705H964.524C964.501 453.151 964.403 452.609 964.23 452.078C964.069 451.536 963.815 451.052 963.469 450.625C963.134 450.187 962.702 449.841 962.171 449.587C961.641 449.333 960.995 449.206 960.234 449.206C958.561 449.195 957.315 449.806 956.497 451.04C955.678 452.263 955.268 453.947 955.268 456.092C955.268 458.376 955.712 460.123 956.6 461.335C957.5 462.534 958.815 463.134 960.545 463.134C961.399 463.134 962.108 463.007 962.673 462.753C963.238 462.488 963.671 462.142 963.971 461.715C964.271 461.277 964.449 460.804 964.507 460.296H967.639C967.604 461.381 967.27 462.35 966.635 463.203C966.012 464.057 965.165 464.731 964.092 465.227C963.031 465.712 961.814 465.954 960.441 465.954ZM999.048 465.193V451.836C999.048 451.259 999.152 450.775 999.359 450.383C999.567 449.979 999.971 449.754 1000.57 449.708L999.048 449.12L998.927 447.649L1002.21 446.767L1002.16 465.193H999.048ZM992.889 465.643V463.03H1007.79V465.643H992.889ZM992.37 449.708V446.767H1002.21L1001.4 449.708H992.37ZM1000.48 443.445C999.78 443.445 999.181 443.203 998.685 442.718C998.2 442.234 997.958 441.605 997.958 440.832C997.958 440.048 998.2 439.414 998.685 438.929C999.181 438.433 999.78 438.185 1000.48 438.185C1001.19 438.185 1001.78 438.433 1002.27 438.929C1002.76 439.414 1003.01 440.048 1003.01 440.832C1003.01 441.605 1002.76 442.234 1002.27 442.718C1001.77 443.203 1001.18 443.445 1000.48 443.445ZM1011.94 465.643V446.732H1014.73L1015.06 453.584L1014.73 452.424C1014.98 450.475 1015.64 448.981 1016.7 447.943C1017.76 446.894 1019.15 446.369 1020.87 446.369C1022.62 446.369 1023.96 446.934 1024.88 448.064C1025.82 449.195 1026.28 450.821 1026.28 452.943V465.643H1023.07V453.999C1023.07 452.384 1022.8 451.213 1022.27 450.487C1021.75 449.748 1020.9 449.379 1019.73 449.379C1018.75 449.379 1017.86 449.662 1017.06 450.227C1016.27 450.781 1015.63 451.554 1015.16 452.545V465.643H1011.94ZM1040.8 465.902C1039.6 465.902 1038.57 465.712 1037.71 465.331C1036.85 464.951 1036.2 464.357 1035.73 463.549C1035.28 462.73 1035.06 461.669 1035.06 460.366V452.044C1035.06 451.732 1035.11 451.404 1035.22 451.058C1035.32 450.712 1035.49 450.406 1035.72 450.141C1035.96 449.875 1036.28 449.714 1036.67 449.656L1035.04 447.511L1035.11 446.923L1035.89 440.14H1038.4V459.864C1038.4 461.087 1038.65 461.9 1039.14 462.303C1039.65 462.696 1040.49 462.892 1041.65 462.892C1042.45 462.892 1043.13 462.846 1043.71 462.753C1044.3 462.661 1044.82 462.54 1045.27 462.39C1045.73 462.24 1046.17 462.079 1046.58 461.905V464.985C1045.89 465.239 1045.09 465.458 1044.18 465.643C1043.28 465.816 1042.15 465.902 1040.8 465.902ZM1030.65 449.656V446.75H1044.97V449.656H1030.65ZM1059.01 465.902C1057.45 465.902 1056.03 465.527 1054.75 464.778C1053.48 464.028 1052.47 462.926 1051.71 461.473C1050.96 460.008 1050.58 458.22 1050.58 456.11C1050.58 454.068 1050.93 452.321 1051.64 450.867C1052.35 449.414 1053.33 448.307 1054.56 447.545C1055.81 446.773 1057.22 446.386 1058.8 446.386C1061.11 446.386 1062.96 447.153 1064.35 448.687C1065.75 450.21 1066.45 452.367 1066.45 455.158C1066.45 455.527 1066.44 455.833 1066.41 456.075C1066.39 456.317 1066.37 456.571 1066.36 456.836H1053.73C1053.75 458.255 1054.01 459.426 1054.51 460.348C1055.02 461.271 1055.67 461.963 1056.47 462.425C1057.27 462.874 1058.14 463.099 1059.06 463.099C1060.19 463.099 1061.08 462.88 1061.74 462.442C1062.4 462.004 1062.84 461.283 1063.06 460.279H1066.08C1065.97 461.456 1065.6 462.465 1064.98 463.307C1064.37 464.137 1063.55 464.778 1062.54 465.227C1061.52 465.677 1060.35 465.902 1059.01 465.902ZM1053.73 455.642C1053.82 455.158 1054.03 454.835 1054.34 454.674C1054.65 454.501 1055.07 454.414 1055.6 454.414H1063.2C1063.18 452.695 1062.81 451.398 1062.09 450.521C1061.36 449.633 1060.28 449.189 1058.84 449.189C1057.17 449.189 1055.91 449.766 1055.05 450.919C1054.19 452.073 1053.75 453.647 1053.73 455.642ZM1069.77 465.643V463.03H1082.94V465.643H1069.77ZM1069.58 449.708V446.732H1075.12L1075.24 449.708H1069.58ZM1073.48 465.297V451.542C1073.48 450.908 1073.58 450.464 1073.79 450.21C1074.01 449.956 1074.36 449.789 1074.84 449.708L1073.48 448.687V446.732H1076.26L1076.49 451.802C1076.77 450.717 1077.23 449.772 1077.85 448.964C1078.48 448.145 1079.21 447.511 1080.05 447.061C1080.89 446.6 1081.77 446.369 1082.68 446.369C1084.25 446.369 1085.47 446.951 1086.33 448.116C1087.2 449.27 1087.6 451.035 1087.54 453.411H1084.39C1084.37 451.946 1084.12 450.908 1083.65 450.296C1083.19 449.685 1082.44 449.379 1081.42 449.379C1080.49 449.379 1079.59 449.737 1078.7 450.452C1077.81 451.156 1077.14 452.009 1076.69 453.013V461.663C1076.69 462.032 1076.61 462.332 1076.43 462.563C1076.27 462.782 1076.01 462.938 1075.64 463.03L1076.69 463.67V465.297H1073.48ZM1090.78 465.643V446.732H1093.57L1093.9 453.584L1093.57 452.424C1093.82 450.475 1094.48 448.981 1095.54 447.943C1096.6 446.894 1097.99 446.369 1099.71 446.369C1101.46 446.369 1102.8 446.934 1103.72 448.064C1104.66 449.195 1105.12 450.821 1105.12 452.943V465.643H1101.91V453.999C1101.91 452.384 1101.64 451.213 1101.11 450.487C1100.59 449.748 1099.74 449.379 1098.57 449.379C1097.59 449.379 1096.7 449.662 1095.9 450.227C1095.11 450.781 1094.47 451.554 1094 452.545V465.643H1090.78ZM1118.14 465.902C1116.58 465.902 1115.16 465.527 1113.88 464.778C1112.61 464.028 1111.6 462.926 1110.84 461.473C1110.09 460.008 1109.71 458.22 1109.71 456.11C1109.71 454.068 1110.06 452.321 1110.77 450.867C1111.48 449.414 1112.46 448.307 1113.69 447.545C1114.94 446.773 1116.35 446.386 1117.93 446.386C1120.24 446.386 1122.09 447.153 1123.48 448.687C1124.88 450.21 1125.58 452.367 1125.58 455.158C1125.58 455.527 1125.57 455.833 1125.54 456.075C1125.52 456.317 1125.5 456.571 1125.49 456.836H1112.86C1112.88 458.255 1113.14 459.426 1113.64 460.348C1114.15 461.271 1114.8 461.963 1115.6 462.425C1116.4 462.874 1117.27 463.099 1118.19 463.099C1119.32 463.099 1120.21 462.88 1120.87 462.442C1121.53 462.004 1121.97 461.283 1122.19 460.279H1125.21C1125.1 461.456 1124.73 462.465 1124.11 463.307C1123.5 464.137 1122.68 464.778 1121.67 465.227C1120.65 465.677 1119.48 465.902 1118.14 465.902ZM1112.86 455.642C1112.95 455.158 1113.16 454.835 1113.47 454.674C1113.78 454.501 1114.2 454.414 1114.73 454.414H1122.33C1122.31 452.695 1121.94 451.398 1121.22 450.521C1120.49 449.633 1119.41 449.189 1117.97 449.189C1116.3 449.189 1115.04 449.766 1114.18 450.919C1113.32 452.073 1112.88 453.647 1112.86 455.642ZM1139.35 465.902C1138.15 465.902 1137.12 465.712 1136.26 465.331C1135.4 464.951 1134.75 464.357 1134.28 463.549C1133.83 462.73 1133.61 461.669 1133.61 460.366V452.044C1133.61 451.732 1133.66 451.404 1133.77 451.058C1133.87 450.712 1134.04 450.406 1134.27 450.141C1134.51 449.875 1134.83 449.714 1135.22 449.656L1133.59 447.511L1133.66 446.923L1134.44 440.14H1136.95V459.864C1136.95 461.087 1137.2 461.9 1137.69 462.303C1138.2 462.696 1139.04 462.892 1140.2 462.892C1141 462.892 1141.68 462.846 1142.26 462.753C1142.85 462.661 1143.37 462.54 1143.82 462.39C1144.28 462.24 1144.72 462.079 1145.13 461.905V464.985C1144.44 465.239 1143.64 465.458 1142.73 465.643C1141.83 465.816 1140.7 465.902 1139.35 465.902ZM1129.2 449.656V446.75H1143.52V449.656H1129.2ZM1168.32 465.643V463.03H1181.49V465.643H1168.32ZM1168.13 449.708V446.732H1173.67L1173.79 449.708H1168.13ZM1172.03 465.297V451.542C1172.03 450.908 1172.13 450.464 1172.34 450.21C1172.56 449.956 1172.91 449.789 1173.39 449.708L1172.03 448.687V446.732H1174.81L1175.04 451.802C1175.32 450.717 1175.78 449.772 1176.4 448.964C1177.03 448.145 1177.76 447.511 1178.6 447.061C1179.44 446.6 1180.32 446.369 1181.23 446.369C1182.8 446.369 1184.02 446.951 1184.88 448.116C1185.75 449.27 1186.15 451.035 1186.09 453.411H1182.94C1182.92 451.946 1182.67 450.908 1182.2 450.296C1181.74 449.685 1180.99 449.379 1179.97 449.379C1179.04 449.379 1178.14 449.737 1177.25 450.452C1176.36 451.156 1175.69 452.009 1175.24 453.013V461.663C1175.24 462.032 1175.16 462.332 1174.98 462.563C1174.82 462.782 1174.56 462.938 1174.19 463.03L1175.24 463.67V465.297H1172.03ZM1194.56 465.85C1192.78 465.85 1191.37 465.377 1190.33 464.431C1189.31 463.474 1188.79 462.188 1188.79 460.573C1188.79 459.166 1189.25 458.018 1190.16 457.13C1191.08 456.231 1192.49 455.602 1194.37 455.244C1195.09 455.106 1195.83 454.991 1196.58 454.898C1197.33 454.806 1198.06 454.731 1198.76 454.674C1199.46 454.604 1200.1 454.558 1200.68 454.535V453.082C1200.68 451.663 1200.35 450.648 1199.69 450.037C1199.05 449.425 1198.04 449.12 1196.67 449.12C1195.23 449.12 1194.14 449.42 1193.4 450.019C1192.67 450.608 1192.33 451.623 1192.38 453.065H1189.37C1189.23 451.727 1189.44 450.562 1190.01 449.57C1190.58 448.566 1191.44 447.788 1192.58 447.234C1193.74 446.68 1195.1 446.404 1196.68 446.404C1199.01 446.404 1200.78 446.98 1201.98 448.134C1203.18 449.276 1203.78 450.96 1203.78 453.186V465.643H1200.7L1200.68 461.542C1200.44 462.384 1200.02 463.134 1199.44 463.791C1198.85 464.437 1198.13 464.945 1197.29 465.314C1196.46 465.671 1195.55 465.85 1194.56 465.85ZM1195.47 463.307C1196.25 463.307 1197 463.163 1197.74 462.874C1198.49 462.574 1199.14 462.188 1199.68 461.715C1200.22 461.231 1200.55 460.712 1200.68 460.158V456.49C1200.27 456.513 1199.78 456.559 1199.23 456.629C1198.69 456.686 1198.14 456.761 1197.6 456.854C1197.06 456.934 1196.58 457.021 1196.17 457.113C1194.69 457.436 1193.66 457.851 1193.07 458.359C1192.48 458.866 1192.19 459.547 1192.19 460.4C1192.19 461.3 1192.47 462.009 1193.03 462.528C1193.61 463.036 1194.42 463.295 1195.47 463.307ZM1215.15 465.85C1213.74 465.85 1212.5 465.458 1211.41 464.674C1210.34 463.889 1209.5 462.776 1208.89 461.335C1208.29 459.881 1207.99 458.151 1207.99 456.144C1207.99 454.149 1208.33 452.424 1209.01 450.971C1209.7 449.506 1210.63 448.382 1211.81 447.597C1213 446.801 1214.34 446.404 1215.82 446.404C1216.62 446.404 1217.35 446.571 1218 446.905C1218.67 447.228 1219.23 447.672 1219.68 448.237C1220.14 448.803 1220.45 449.454 1220.62 450.193L1221.62 450.763L1220.48 452.061C1220.3 451.415 1220.01 450.885 1219.59 450.469C1219.19 450.043 1218.73 449.725 1218.21 449.518C1217.7 449.31 1217.2 449.206 1216.69 449.206C1215.09 449.206 1213.78 449.812 1212.78 451.023C1211.79 452.234 1211.29 453.958 1211.29 456.196C1211.29 457.569 1211.48 458.774 1211.86 459.812C1212.24 460.85 1212.79 461.663 1213.5 462.252C1214.23 462.828 1215.11 463.117 1216.13 463.117C1216.71 463.117 1217.29 462.995 1217.86 462.753C1218.44 462.5 1218.95 462.119 1219.4 461.611C1219.87 461.104 1220.19 460.469 1220.39 459.708L1220.56 460.729L1220.41 461.369C1220.28 462.234 1219.96 463.007 1219.44 463.688C1218.92 464.357 1218.29 464.887 1217.54 465.279C1216.79 465.66 1215.99 465.85 1215.15 465.85ZM1220.43 465.643L1220.39 459.708V438.722H1223.59L1223.61 465.643H1220.43ZM1235.57 465.193V451.836C1235.57 451.259 1235.67 450.775 1235.88 450.383C1236.09 449.979 1236.49 449.754 1237.09 449.708L1235.57 449.12L1235.45 447.649L1238.73 446.767L1238.68 465.193H1235.57ZM1229.41 465.643V463.03H1244.3V465.643H1229.41ZM1228.89 449.708V446.767H1238.73L1237.92 449.708H1228.89ZM1237 443.445C1236.3 443.445 1235.7 443.203 1235.2 442.718C1234.72 442.234 1234.48 441.605 1234.48 440.832C1234.48 440.048 1234.72 439.414 1235.2 438.929C1235.7 438.433 1236.3 438.185 1237 438.185C1237.71 438.185 1238.3 438.433 1238.79 438.929C1239.28 439.414 1239.53 440.048 1239.53 440.832C1239.53 441.605 1239.28 442.234 1238.79 442.718C1238.29 443.203 1237.7 443.445 1237 443.445ZM1255.52 465.902C1253.92 465.902 1252.49 465.527 1251.25 464.778C1250.01 464.016 1249.04 462.909 1248.34 461.456C1247.64 459.991 1247.28 458.203 1247.28 456.092C1247.28 454.062 1247.65 452.326 1248.37 450.885C1249.1 449.431 1250.09 448.318 1251.33 447.545C1252.58 446.773 1253.97 446.386 1255.52 446.386C1257.17 446.386 1258.61 446.773 1259.85 447.545C1261.08 448.318 1262.04 449.431 1262.72 450.885C1263.41 452.326 1263.76 454.062 1263.76 456.092C1263.76 458.215 1263.39 460.008 1262.65 461.473C1261.92 462.926 1260.94 464.028 1259.69 464.778C1258.44 465.527 1257.05 465.902 1255.52 465.902ZM1255.52 463.065C1256.98 463.065 1258.17 462.494 1259.08 461.352C1260.01 460.198 1260.47 458.445 1260.47 456.092C1260.47 453.855 1260.02 452.153 1259.12 450.988C1258.23 449.812 1257.03 449.224 1255.52 449.224C1254.06 449.224 1252.86 449.812 1251.94 450.988C1251.03 452.153 1250.57 453.855 1250.57 456.092C1250.57 458.364 1251.03 460.095 1251.94 461.283C1252.86 462.471 1254.06 463.065 1255.52 463.065ZM1295.15 465.937C1294.25 465.937 1293.36 465.839 1292.48 465.643C1291.61 465.458 1290.8 465.152 1290.06 464.726C1289.32 464.287 1288.72 463.699 1288.24 462.961C1287.78 462.223 1287.51 461.3 1287.41 460.193H1290.74C1290.85 461.277 1291.34 462.061 1292.21 462.546C1293.07 463.03 1294.06 463.272 1295.18 463.272C1296.47 463.272 1297.5 463.094 1298.26 462.736C1299.03 462.367 1299.42 461.669 1299.42 460.642C1299.42 460.031 1299.24 459.535 1298.87 459.155C1298.51 458.774 1297.98 458.457 1297.29 458.203C1296.61 457.938 1295.78 457.684 1294.8 457.442C1293.99 457.246 1293.19 457.027 1292.4 456.784C1291.61 456.531 1290.9 456.202 1290.25 455.798C1289.62 455.394 1289.11 454.858 1288.73 454.189C1288.35 453.52 1288.16 452.667 1288.16 451.629C1288.16 450.602 1288.43 449.697 1288.97 448.912C1289.52 448.128 1290.32 447.517 1291.36 447.078C1292.4 446.64 1293.65 446.421 1295.13 446.421C1296.32 446.421 1297.42 446.605 1298.43 446.974C1299.46 447.332 1300.3 447.915 1300.94 448.722C1301.6 449.518 1301.96 450.579 1302.03 451.905H1298.8C1298.76 451.352 1298.61 450.861 1298.35 450.435C1298.08 450.008 1297.69 449.673 1297.15 449.431C1296.62 449.189 1295.94 449.068 1295.11 449.068C1294.35 449.068 1293.68 449.149 1293.11 449.31C1292.53 449.472 1292.08 449.737 1291.76 450.106C1291.43 450.475 1291.27 450.971 1291.27 451.594C1291.27 452.205 1291.46 452.707 1291.84 453.099C1292.24 453.491 1292.77 453.814 1293.45 454.068C1294.13 454.31 1294.91 454.541 1295.79 454.76C1296.55 454.945 1297.33 455.164 1298.14 455.418C1298.95 455.671 1299.69 456 1300.37 456.404C1301.05 456.807 1301.6 457.332 1302.02 457.978C1302.44 458.612 1302.66 459.414 1302.66 460.383C1302.64 462.044 1302.04 463.388 1300.84 464.414C1299.65 465.429 1297.75 465.937 1295.15 465.937ZM1316.74 465.902C1315.54 465.902 1314.51 465.712 1313.65 465.331C1312.79 464.951 1312.14 464.357 1311.67 463.549C1311.22 462.73 1311 461.669 1311 460.366V452.044C1311 451.732 1311.05 451.404 1311.16 451.058C1311.26 450.712 1311.43 450.406 1311.66 450.141C1311.9 449.875 1312.22 449.714 1312.61 449.656L1310.98 447.511L1311.05 446.923L1311.83 440.14H1314.34V459.864C1314.34 461.087 1314.59 461.9 1315.08 462.303C1315.59 462.696 1316.43 462.892 1317.59 462.892C1318.39 462.892 1319.07 462.846 1319.65 462.753C1320.24 462.661 1320.76 462.54 1321.21 462.39C1321.67 462.24 1322.11 462.079 1322.52 461.905V464.985C1321.83 465.239 1321.03 465.458 1320.12 465.643C1319.22 465.816 1318.09 465.902 1316.74 465.902ZM1306.59 449.656V446.75H1320.91V449.656H1306.59ZM1332.53 465.85C1330.75 465.85 1329.34 465.377 1328.3 464.431C1327.28 463.474 1326.76 462.188 1326.76 460.573C1326.76 459.166 1327.22 458.018 1328.13 457.13C1329.05 456.231 1330.46 455.602 1332.34 455.244C1333.06 455.106 1333.8 454.991 1334.55 454.898C1335.3 454.806 1336.03 454.731 1336.73 454.674C1337.43 454.604 1338.07 454.558 1338.65 454.535V453.082C1338.65 451.663 1338.32 450.648 1337.66 450.037C1337.02 449.425 1336.01 449.12 1334.64 449.12C1333.19 449.12 1332.1 449.42 1331.37 450.019C1330.64 450.608 1330.3 451.623 1330.35 453.065H1327.34C1327.2 451.727 1327.41 450.562 1327.98 449.57C1328.55 448.566 1329.41 447.788 1330.55 447.234C1331.71 446.68 1333.07 446.404 1334.65 446.404C1336.98 446.404 1338.75 446.98 1339.95 448.134C1341.15 449.276 1341.75 450.96 1341.75 453.186V465.643H1338.67L1338.65 461.542C1338.41 462.384 1337.99 463.134 1337.4 463.791C1336.82 464.437 1336.1 464.945 1335.26 465.314C1334.43 465.671 1333.52 465.85 1332.53 465.85ZM1333.44 463.307C1334.22 463.307 1334.97 463.163 1335.71 462.874C1336.46 462.574 1337.1 462.188 1337.65 461.715C1338.19 461.231 1338.52 460.712 1338.65 460.158V456.49C1338.24 456.513 1337.75 456.559 1337.2 456.629C1336.66 456.686 1336.11 456.761 1335.57 456.854C1335.03 456.934 1334.55 457.021 1334.13 457.113C1332.66 457.436 1331.63 457.851 1331.04 458.359C1330.45 458.866 1330.16 459.547 1330.16 460.4C1330.16 461.3 1330.44 462.009 1331 462.528C1331.58 463.036 1332.39 463.295 1333.44 463.307ZM1356.16 465.902C1354.96 465.902 1353.93 465.712 1353.07 465.331C1352.21 464.951 1351.56 464.357 1351.09 463.549C1350.64 462.73 1350.42 461.669 1350.42 460.366V452.044C1350.42 451.732 1350.47 451.404 1350.58 451.058C1350.68 450.712 1350.85 450.406 1351.08 450.141C1351.32 449.875 1351.64 449.714 1352.03 449.656L1350.4 447.511L1350.47 446.923L1351.25 440.14H1353.76V459.864C1353.76 461.087 1354.01 461.9 1354.5 462.303C1355.01 462.696 1355.85 462.892 1357.01 462.892C1357.81 462.892 1358.49 462.846 1359.07 462.753C1359.66 462.661 1360.18 462.54 1360.63 462.39C1361.09 462.24 1361.53 462.079 1361.94 461.905V464.985C1361.25 465.239 1360.45 465.458 1359.54 465.643C1358.64 465.816 1357.51 465.902 1356.16 465.902ZM1346.01 449.656V446.75H1360.33V449.656H1346.01ZM1373.54 465.193V451.836C1373.54 451.259 1373.64 450.775 1373.85 450.383C1374.06 449.979 1374.46 449.754 1375.06 449.708L1373.54 449.12L1373.42 447.649L1376.7 446.767L1376.65 465.193H1373.54ZM1367.38 465.643V463.03H1382.27V465.643H1367.38ZM1366.86 449.708V446.767H1376.7L1375.89 449.708H1366.86ZM1374.97 443.445C1374.27 443.445 1373.67 443.203 1373.17 442.718C1372.69 442.234 1372.45 441.605 1372.45 440.832C1372.45 440.048 1372.69 439.414 1373.17 438.929C1373.67 438.433 1374.27 438.185 1374.97 438.185C1375.68 438.185 1376.27 438.433 1376.76 438.929C1377.25 439.414 1377.5 440.048 1377.5 440.832C1377.5 441.605 1377.25 442.234 1376.76 442.718C1376.26 443.203 1375.67 443.445 1374.97 443.445ZM1393.49 465.902C1391.89 465.902 1390.46 465.527 1389.22 464.778C1387.98 464.016 1387.01 462.909 1386.31 461.456C1385.61 459.991 1385.25 458.203 1385.25 456.092C1385.25 454.062 1385.62 452.326 1386.34 450.885C1387.07 449.431 1388.06 448.318 1389.3 447.545C1390.55 446.773 1391.94 446.386 1393.49 446.386C1395.14 446.386 1396.58 446.773 1397.82 447.545C1399.05 448.318 1400.01 449.431 1400.69 450.885C1401.38 452.326 1401.73 454.062 1401.73 456.092C1401.73 458.215 1401.36 460.008 1400.62 461.473C1399.89 462.926 1398.91 464.028 1397.66 464.778C1396.41 465.527 1395.02 465.902 1393.49 465.902ZM1393.49 463.065C1394.95 463.065 1396.14 462.494 1397.05 461.352C1397.98 460.198 1398.44 458.445 1398.44 456.092C1398.44 453.855 1397.99 452.153 1397.09 450.988C1396.2 449.812 1395 449.224 1393.49 449.224C1392.02 449.224 1390.83 449.812 1389.91 450.988C1389 452.153 1388.54 453.855 1388.54 456.092C1388.54 458.364 1389 460.095 1389.91 461.283C1390.83 462.471 1392.02 463.065 1393.49 463.065ZM1406.14 465.643V446.732H1408.93L1409.26 453.584L1408.93 452.424C1409.18 450.475 1409.84 448.981 1410.9 447.943C1411.96 446.894 1413.35 446.369 1415.07 446.369C1416.82 446.369 1418.16 446.934 1419.08 448.064C1420.02 449.195 1420.48 450.821 1420.48 452.943V465.643H1417.27V453.999C1417.27 452.384 1417 451.213 1416.47 450.487C1415.95 449.748 1415.1 449.379 1413.93 449.379C1412.95 449.379 1412.06 449.662 1411.26 450.227C1410.47 450.781 1409.83 451.554 1409.36 452.545V465.643H1406.14Z" fill="white"/>
<defs>
<clipPath id="clip0_35_512">
<rect width="533" height="460" fill="white"/>
</clipPath>
</defs>
</svg>
