<svg width="1453" height="490" viewBox="0 0 1453 490" fill="none" xmlns="http://www.w3.org/2000/svg">
<g id="Group 59">
<g id="cabbage">
<path id="body" d="M379 158.233C360.037 130.648 288.512 124.698 247.368 123.665H235.869C197.304 91.5492 147.397 43.7436 99.1298 69.3365C50.8626 94.9293 62.6866 138.27 75.0831 179.397C45.5182 196.902 7.34522 230.355 0.215041 288.508C-1.6622 303.819 9.07336 317.142 19.8573 322.695C43.4622 334.849 72.9703 338.567 95.5457 339.373C77.0606 368.258 41.7439 435.718 100.447 455.038C154.862 472.945 218.556 425.751 249.767 398.13C256.825 391.638 265.498 382.913 273.797 372.957L260.855 405.85C287.313 426.607 320.578 440.624 345.651 410.666C385.177 363.438 369.988 290.178 362.73 263.868C356.017 248.017 355.382 245.983 355.382 245.983L360.002 240.419C377.172 215.612 394.638 180.981 379 158.233Z" fill="#18DE2F"/>
<g id="eye">
<path id="sclera" d="M194.711 178.04C228.908 155.086 271.499 167.273 301.45 198.179C311.689 231.488 296.877 259.946 280.1 272.892C242.919 301.583 169.64 299.104 124.416 288.207C151.419 250.007 148.571 207.147 194.711 178.04Z" fill="white"/>
<g id="pupilGroup">
<path id="pupil" d="M213.822 187.69C233.022 171.055 262.074 173.149 278.69 192.366C295.305 211.583 293.18 240.634 273.945 257.229C254.739 273.798 225.742 271.676 209.151 252.489C192.562 233.301 194.652 204.301 213.822 187.69Z" fill="#A416D8"/>
<circle id="highlight" cx="254.263" cy="201.745" r="24.1309" fill="white"/>
</g>
</g>
<g id="waves">
<path id="wave1" d="M359.121 86.8916C359.121 86.8916 396.057 93.1254 421.751 137.63C447.446 182.134 434.377 217.237 434.377 217.237" stroke="#FF9A30" stroke-width="45.9636" stroke-linecap="round"/>
<path id="wave2" d="M385.827 22.9852C385.827 22.9852 444.09 32.2555 484.097 101.55C524.105 170.845 503.002 225.937 503.002 225.937" stroke="#FF9A30" stroke-width="45.9636" stroke-linecap="round"/>
</g>
</g>
<g id="Group 54">
<circle id="Ellipse 26" cx="748.748" cy="320.035" r="85.5937" fill="#FF9A30"/>
<path id="CABBAGE" d="M609.447 26.875H644.55V61.9784H609.447V26.875ZM574.343 26.875H609.447V61.9784H574.343V26.875ZM574.343 61.9784H609.447V97.0818H574.343V61.9784ZM574.343 97.0818H609.447V132.185H574.343V97.0818ZM574.343 132.185H609.447V167.288H574.343V132.185ZM574.343 167.288H609.447V202.392H574.343V167.288ZM609.447 167.288H644.55V202.392H609.447V167.288ZM667.966 167.288H703.07V202.392H667.966V167.288ZM667.966 132.185H703.07V167.288H667.966V132.185ZM667.966 97.0818H703.07V132.185H667.966V97.0818ZM667.966 61.9784H703.07V97.0818H667.966V61.9784ZM703.07 26.875H738.173V61.9784H703.07V26.875ZM738.173 61.9784H773.276V97.0818H738.173V61.9784ZM738.173 97.0818H773.276V132.185H738.173V97.0818ZM738.173 132.185H773.276V167.288H738.173V132.185ZM738.173 167.288H773.276V202.392H738.173V167.288ZM703.07 97.0818H738.173V132.185H703.07V97.0818ZM796.658 26.875H831.762V61.9784H796.658V26.875ZM796.658 61.9784H831.762V97.0818H796.658V61.9784ZM796.658 97.0818H831.762V132.185H796.658V97.0818ZM796.658 132.185H831.762V167.288H796.658V132.185ZM796.658 167.288H831.762V202.392H796.658V167.288ZM831.762 26.875H866.865V61.9784H831.762V26.875ZM866.865 26.875H901.969V61.9784H866.865V26.875ZM866.865 61.9784H901.969V97.0818H866.865V61.9784ZM866.865 132.185H901.969V167.288H866.865V132.185ZM866.865 167.288H901.969V202.392H866.865V167.288ZM831.762 167.288H866.865V202.392H831.762V167.288ZM831.762 97.0818H866.865V132.185H831.762V97.0818ZM925.351 26.875H960.454V61.9784H925.351V26.875ZM925.351 61.9784H960.454V97.0818H925.351V61.9784ZM925.351 97.0818H960.454V132.185H925.351V97.0818ZM925.351 132.185H960.454V167.288H925.351V132.185ZM925.351 167.288H960.454V202.392H925.351V167.288ZM960.454 26.875H995.557V61.9784H960.454V26.875ZM995.557 26.875H1030.66V61.9784H995.557V26.875ZM995.557 61.9784H1030.66V97.0818H995.557V61.9784ZM995.557 132.185H1030.66V167.288H995.557V132.185ZM995.557 167.288H1030.66V202.392H995.557V167.288ZM960.454 167.288H995.557V202.392H960.454V167.288ZM960.454 97.0818H995.557V132.185H960.454V97.0818ZM1054.04 167.288H1089.15V202.392H1054.04V167.288ZM1054.04 132.185H1089.15V167.288H1054.04V132.185ZM1054.04 97.0818H1089.15V132.185H1054.04V97.0818ZM1054.04 61.9784H1089.15V97.0818H1054.04V61.9784ZM1089.15 26.875H1124.25V61.9784H1089.15V26.875ZM1124.25 61.9784H1159.35V97.0818H1124.25V61.9784ZM1124.25 97.0818H1159.35V132.185H1124.25V97.0818ZM1124.25 132.185H1159.35V167.288H1124.25V132.185ZM1124.25 167.288H1159.35V202.392H1124.25V167.288ZM1089.15 97.0818H1124.25V132.185H1089.15V97.0818ZM1252.94 26.875H1288.05V61.9784H1252.94V26.875ZM1217.84 26.875H1252.94V61.9784H1217.84V26.875ZM1182.73 26.875H1217.84V61.9784H1182.73V26.875ZM1182.73 61.9784H1217.84V97.0818H1182.73V61.9784ZM1182.73 97.0818H1217.84V132.185H1182.73V97.0818ZM1182.73 132.185H1217.84V167.288H1182.73V132.185ZM1182.73 167.288H1217.84V202.392H1182.73V167.288ZM1217.84 167.288H1252.94V202.392H1217.84V167.288ZM1252.94 132.185H1288.05V167.288H1252.94V132.185ZM1252.94 97.0818H1288.05V132.185H1252.94V97.0818ZM1311.43 26.875H1346.53V61.9784H1311.43V26.875ZM1311.43 61.9784H1346.53V97.0818H1311.43V61.9784ZM1311.43 97.0818H1346.53V132.185H1311.43V97.0818ZM1311.43 132.185H1346.53V167.288H1311.43V132.185ZM1311.43 167.288H1346.53V202.392H1311.43V167.288ZM1346.53 26.875H1381.63V61.9784H1346.53V26.875ZM1346.53 167.288H1381.63V202.392H1346.53V167.288ZM1346.53 97.0818H1381.63V132.185H1346.53V97.0818ZM1381.63 26.875H1416.74V61.9784H1381.63V26.875ZM1381.63 167.288H1416.74V202.392H1381.63V167.288Z" fill="black"/>
<path id="TOWN" d="M854.936 230.24H890.039V265.344H854.936V230.24ZM890.039 230.24H925.143V265.344H890.039V230.24ZM925.143 230.24H960.246V265.344H925.143V230.24ZM890.039 265.344H925.143V300.447H890.039V265.344ZM890.039 300.447H925.143V335.55H890.039V300.447ZM890.039 335.55H925.143V370.654H890.039V335.55ZM890.039 370.654H925.143V405.757H890.039V370.654ZM983.628 230.24H1018.73V265.344H983.628V230.24ZM1018.73 230.24H1053.83V265.344H1018.73V230.24ZM1053.83 230.24H1088.94V265.344H1053.83V230.24ZM1053.83 265.344H1088.94V300.447H1053.83V265.344ZM1053.83 300.447H1088.94V335.55H1053.83V300.447ZM1053.83 335.55H1088.94V370.654H1053.83V335.55ZM1053.83 370.654H1088.94V405.757H1053.83V370.654ZM1018.73 370.654H1053.83V405.757H1018.73V370.654ZM983.628 370.654H1018.73V405.757H983.628V370.654ZM983.628 335.55H1018.73V370.654H983.628V335.55ZM983.628 300.447H1018.73V335.55H983.628V300.447ZM983.628 265.344H1018.73V300.447H983.628V265.344ZM1112.32 230.24H1147.42V265.344H1112.32V230.24ZM1112.32 265.344H1147.42V300.447H1112.32V265.344ZM1112.32 300.447H1147.42V335.55H1112.32V300.447ZM1112.32 335.55H1147.42V370.654H1112.32V335.55ZM1147.42 370.654H1182.53V405.757H1147.42V370.654ZM1182.53 335.55H1217.63V370.654H1182.53V335.55ZM1182.53 300.447H1217.63V335.55H1182.53V300.447ZM1182.53 265.344H1217.63V300.447H1182.53V265.344ZM1182.53 230.24H1217.63V265.344H1182.53V230.24ZM1217.63 370.654H1252.73V405.757H1217.63V370.654ZM1252.73 335.55H1287.84V370.654H1252.73V335.55ZM1252.73 300.447H1287.84V335.55H1252.73V300.447ZM1252.73 265.344H1287.84V300.447H1252.73V265.344ZM1252.73 230.24H1287.84V265.344H1252.73V230.24ZM1311.53 370.654H1346.63V405.757H1311.53V370.654ZM1311.53 335.55H1346.63V370.654H1311.53V335.55ZM1311.53 300.447H1346.63V335.55H1311.53V300.447ZM1311.53 265.344H1346.63V300.447H1311.53V265.344ZM1346.63 230.24H1381.73V265.344H1346.63V230.24ZM1381.73 265.344H1416.84V300.447H1381.73V265.344ZM1381.73 300.447H1416.84V335.55H1381.73V300.447ZM1381.73 335.55H1416.84V370.654H1381.73V335.55ZM1381.73 370.654H1416.84V405.757H1381.73V370.654ZM1311.53 230.24H1346.63V265.344H1311.53V230.24Z" fill="black"/>
</g>
<path id="atlanta&#226;&#128;&#153;s #1 organic internet radio station" d="M582.89 465.242C581.114 465.242 579.707 464.769 578.668 463.823C577.642 462.866 577.129 461.58 577.129 459.965C577.129 458.558 577.584 457.41 578.495 456.522C579.418 455.622 580.82 454.994 582.7 454.636C583.426 454.498 584.165 454.382 584.914 454.29C585.664 454.198 586.391 454.123 587.094 454.065C587.798 453.996 588.438 453.95 589.015 453.927V452.473C589.015 451.055 588.686 450.04 588.028 449.428C587.383 448.817 586.373 448.511 585.001 448.511C583.559 448.511 582.469 448.811 581.731 449.411C581.004 449.999 580.664 451.014 580.71 452.456H577.7C577.561 451.118 577.775 449.953 578.34 448.961C578.916 447.958 579.776 447.179 580.918 446.626C582.071 446.072 583.438 445.795 585.018 445.795C587.348 445.795 589.113 446.372 590.312 447.525C591.512 448.667 592.112 450.351 592.112 452.577V465.034H589.032L589.015 460.934C588.772 461.776 588.357 462.525 587.769 463.183C587.181 463.829 586.466 464.336 585.624 464.705C584.793 465.063 583.882 465.242 582.89 465.242ZM583.807 462.698C584.58 462.698 585.335 462.554 586.073 462.266C586.823 461.966 587.469 461.58 588.011 461.107C588.553 460.622 588.888 460.103 589.015 459.55V455.882C588.599 455.905 588.115 455.951 587.561 456.02C587.019 456.078 586.477 456.153 585.935 456.245C585.393 456.326 584.914 456.412 584.499 456.505C583.023 456.828 581.99 457.243 581.402 457.75C580.814 458.258 580.52 458.938 580.52 459.792C580.52 460.692 580.802 461.401 581.367 461.92C581.944 462.427 582.757 462.687 583.807 462.698ZM606.527 465.294C605.328 465.294 604.295 465.103 603.43 464.723C602.577 464.342 601.919 463.748 601.458 462.941C601.008 462.122 600.783 461.061 600.783 459.757V451.435C600.783 451.124 600.835 450.795 600.939 450.449C601.043 450.103 601.21 449.797 601.441 449.532C601.683 449.267 602 449.105 602.392 449.048L600.766 446.902L600.835 446.314L601.614 439.532H604.122V459.255C604.122 460.478 604.37 461.291 604.866 461.695C605.374 462.087 606.21 462.283 607.375 462.283C608.171 462.283 608.857 462.237 609.434 462.145C610.022 462.053 610.541 461.931 610.991 461.781C611.452 461.632 611.891 461.47 612.306 461.297V464.377C611.614 464.63 610.812 464.85 609.901 465.034C609.001 465.207 607.877 465.294 606.527 465.294ZM596.371 449.048V446.141H610.697V449.048H596.371ZM627.085 465.294C625.839 465.294 624.784 465.109 623.919 464.74C623.065 464.371 622.414 463.783 621.964 462.975C621.526 462.156 621.306 461.084 621.306 459.757V442.802C621.306 442.26 621.41 441.833 621.618 441.522C621.837 441.21 622.143 441.031 622.535 440.985H615.735V438.113H624.68L624.646 459.255C624.646 460.467 624.859 461.274 625.286 461.678C625.724 462.081 626.503 462.283 627.621 462.283C628.683 462.283 629.576 462.191 630.303 462.006C631.041 461.822 631.733 461.585 632.379 461.297V464.377C631.745 464.63 630.966 464.85 630.044 465.034C629.121 465.207 628.135 465.294 627.085 465.294ZM642.02 465.242C640.244 465.242 638.836 464.769 637.798 463.823C636.772 462.866 636.259 461.58 636.259 459.965C636.259 458.558 636.714 457.41 637.625 456.522C638.548 455.622 639.95 454.994 641.83 454.636C642.556 454.498 643.294 454.382 644.044 454.29C644.794 454.198 645.521 454.123 646.224 454.065C646.928 453.996 647.568 453.95 648.145 453.927V452.473C648.145 451.055 647.816 450.04 647.158 449.428C646.512 448.817 645.503 448.511 644.131 448.511C642.689 448.511 641.599 448.811 640.861 449.411C640.134 449.999 639.794 451.014 639.84 452.456H636.83C636.691 451.118 636.905 449.953 637.47 448.961C638.046 447.958 638.906 447.179 640.048 446.626C641.201 446.072 642.568 445.795 644.148 445.795C646.478 445.795 648.243 446.372 649.442 447.525C650.642 448.667 651.242 450.351 651.242 452.577V465.034H648.162L648.145 460.934C647.902 461.776 647.487 462.525 646.899 463.183C646.311 463.829 645.596 464.336 644.754 464.705C643.923 465.063 643.012 465.242 642.02 465.242ZM642.937 462.698C643.71 462.698 644.465 462.554 645.203 462.266C645.953 461.966 646.599 461.58 647.141 461.107C647.683 460.622 648.018 460.103 648.145 459.55V455.882C647.729 455.905 647.245 455.951 646.691 456.02C646.149 456.078 645.607 456.153 645.065 456.245C644.523 456.326 644.044 456.412 643.629 456.505C642.153 456.828 641.12 457.243 640.532 457.75C639.944 458.258 639.65 458.938 639.65 459.792C639.65 460.692 639.932 461.401 640.497 461.92C641.074 462.427 641.887 462.687 642.937 462.698ZM656.505 465.034V446.124H659.29L659.619 452.975L659.29 451.816C659.544 449.867 660.202 448.373 661.263 447.335C662.324 446.285 663.714 445.76 665.432 445.76C667.186 445.76 668.524 446.326 669.446 447.456C670.381 448.586 670.848 450.213 670.848 452.335V465.034H667.63V453.39C667.63 451.776 667.364 450.605 666.834 449.878C666.315 449.14 665.467 448.771 664.29 448.771C663.31 448.771 662.422 449.053 661.626 449.619C660.83 450.172 660.196 450.945 659.723 451.937V465.034H656.505ZM685.367 465.294C684.168 465.294 683.135 465.103 682.27 464.723C681.417 464.342 680.759 463.748 680.298 462.941C679.848 462.122 679.623 461.061 679.623 459.757V451.435C679.623 451.124 679.675 450.795 679.779 450.449C679.883 450.103 680.05 449.797 680.281 449.532C680.523 449.267 680.84 449.105 681.232 449.048L679.606 446.902L679.675 446.314L680.454 439.532H682.962V459.255C682.962 460.478 683.21 461.291 683.706 461.695C684.214 462.087 685.05 462.283 686.215 462.283C687.011 462.283 687.697 462.237 688.274 462.145C688.862 462.053 689.381 461.931 689.831 461.781C690.292 461.632 690.731 461.47 691.146 461.297V464.377C690.454 464.63 689.652 464.85 688.741 465.034C687.841 465.207 686.717 465.294 685.367 465.294ZM675.211 449.048V446.141H689.537V449.048H675.211ZM701.15 465.242C699.374 465.242 697.966 464.769 696.928 463.823C695.902 462.866 695.389 461.58 695.389 459.965C695.389 458.558 695.844 457.41 696.755 456.522C697.678 455.622 699.079 454.994 700.96 454.636C701.686 454.498 702.424 454.382 703.174 454.29C703.924 454.198 704.65 454.123 705.354 454.065C706.058 453.996 706.698 453.95 707.275 453.927V452.473C707.275 451.055 706.946 450.04 706.288 449.428C705.642 448.817 704.633 448.511 703.261 448.511C701.819 448.511 700.729 448.811 699.991 449.411C699.264 449.999 698.924 451.014 698.97 452.456H695.959C695.821 451.118 696.034 449.953 696.6 448.961C697.176 447.958 698.036 447.179 699.178 446.626C700.331 446.072 701.698 445.795 703.278 445.795C705.608 445.795 707.373 446.372 708.572 447.525C709.772 448.667 710.371 450.351 710.371 452.577V465.034H707.292L707.275 460.934C707.032 461.776 706.617 462.525 706.029 463.183C705.441 463.829 704.725 464.336 703.883 464.705C703.053 465.063 702.142 465.242 701.15 465.242ZM702.067 462.698C702.84 462.698 703.595 462.554 704.333 462.266C705.083 461.966 705.729 461.58 706.271 461.107C706.813 460.622 707.148 460.103 707.275 459.55V455.882C706.859 455.905 706.375 455.951 705.821 456.02C705.279 456.078 704.737 456.153 704.195 456.245C703.653 456.326 703.174 456.412 702.759 456.505C701.282 456.828 700.25 457.243 699.662 457.75C699.074 458.258 698.78 458.938 698.78 459.792C698.78 460.692 699.062 461.401 699.627 461.92C700.204 462.427 701.017 462.687 702.067 462.698ZM720.843 452.041V449.117H721.535C721.858 449.117 722.1 449.025 722.261 448.84C722.434 448.644 722.55 448.286 722.607 447.767C722.676 447.248 722.711 446.504 722.711 445.536C722.723 444.74 722.786 444.186 722.901 443.875C723.017 443.552 723.357 443.327 723.922 443.2H720.756V438.113H725.445V444.722C725.445 447.26 725.133 449.117 724.51 450.293C723.888 451.458 722.878 452.041 721.483 452.041H720.843ZM742.611 465.328C741.712 465.328 740.824 465.23 739.947 465.034C739.07 464.85 738.263 464.544 737.525 464.117C736.787 463.679 736.181 463.091 735.708 462.352C735.247 461.614 734.97 460.692 734.878 459.584H738.2C738.315 460.668 738.805 461.453 739.67 461.937C740.535 462.422 741.527 462.664 742.646 462.664C743.938 462.664 744.964 462.485 745.726 462.128C746.498 461.758 746.885 461.061 746.885 460.034C746.885 459.423 746.7 458.927 746.331 458.546C745.974 458.166 745.449 457.848 744.757 457.595C744.076 457.329 743.246 457.076 742.265 456.833C741.458 456.637 740.656 456.418 739.86 456.176C739.076 455.922 738.361 455.593 737.715 455.19C737.081 454.786 736.573 454.25 736.193 453.581C735.812 452.912 735.622 452.058 735.622 451.02C735.622 449.994 735.893 449.088 736.435 448.304C736.988 447.519 737.784 446.908 738.822 446.47C739.86 446.032 741.118 445.812 742.594 445.812C743.782 445.812 744.884 445.997 745.899 446.366C746.925 446.724 747.761 447.306 748.407 448.113C749.065 448.909 749.428 449.97 749.497 451.297H746.262C746.227 450.743 746.077 450.253 745.812 449.826C745.547 449.4 745.149 449.065 744.618 448.823C744.088 448.581 743.407 448.459 742.577 448.459C741.815 448.459 741.147 448.54 740.57 448.702C739.993 448.863 739.543 449.128 739.22 449.498C738.897 449.867 738.736 450.363 738.736 450.985C738.736 451.597 738.926 452.099 739.307 452.491C739.699 452.883 740.235 453.206 740.916 453.46C741.596 453.702 742.375 453.932 743.252 454.152C744.013 454.336 744.797 454.555 745.604 454.809C746.412 455.063 747.156 455.392 747.836 455.795C748.517 456.199 749.065 456.724 749.48 457.37C749.907 458.004 750.12 458.806 750.12 459.775C750.109 461.435 749.503 462.779 748.303 463.806C747.115 464.821 745.218 465.328 742.611 465.328ZM781.166 464.688L786.72 440.397H789.557L784.021 464.688H781.166ZM772.481 458.927V456.522H789.332V458.927H772.481ZM774.09 464.688L779.626 440.397H782.464L776.945 464.688H774.09ZM774.107 449.082V446.677H791.166V449.082H774.107ZM800.738 463.806V446.66C800.738 445.91 800.761 445.19 800.807 444.497C800.853 443.805 800.917 443.102 800.997 442.387L801.049 439.878H804.112V463.806H800.738ZM793.713 465.034V462.145H810.34V465.034H793.713ZM792.347 446.124V443.027C793.35 443.292 794.307 443.396 795.219 443.338C796.13 443.281 796.966 443.096 797.727 442.785C798.489 442.473 799.152 442.07 799.717 441.574C800.294 441.066 800.738 440.501 801.049 439.878L800.997 442.387C800.801 443.425 800.369 444.249 799.7 444.861C799.042 445.461 798.269 445.887 797.381 446.141C796.505 446.395 795.617 446.51 794.717 446.487C793.817 446.464 793.027 446.343 792.347 446.124ZM840.954 465.294C839.35 465.294 837.926 464.919 836.68 464.169C835.446 463.408 834.477 462.301 833.774 460.847C833.07 459.382 832.718 457.595 832.718 455.484C832.718 453.454 833.082 451.718 833.808 450.276C834.535 448.823 835.521 447.71 836.767 446.937C838.012 446.164 839.408 445.778 840.954 445.778C842.603 445.778 844.045 446.164 845.279 446.937C846.513 447.71 847.47 448.823 848.151 450.276C848.843 451.718 849.189 453.454 849.189 455.484C849.189 457.606 848.82 459.4 848.082 460.865C847.355 462.318 846.369 463.419 845.123 464.169C843.878 464.919 842.488 465.294 840.954 465.294ZM840.954 462.456C842.418 462.456 843.606 461.885 844.518 460.743C845.44 459.59 845.902 457.837 845.902 455.484C845.902 453.246 845.452 451.545 844.552 450.38C843.664 449.203 842.465 448.615 840.954 448.615C839.489 448.615 838.295 449.203 837.372 450.38C836.461 451.545 836.005 453.246 836.005 455.484C836.005 457.756 836.461 459.486 837.372 460.674C838.295 461.862 839.489 462.456 840.954 462.456ZM852.307 465.034V462.422H865.473V465.034H852.307ZM852.117 449.1V446.124H857.653L857.774 449.1H852.117ZM856.01 464.688V450.934C856.01 450.299 856.113 449.855 856.321 449.601C856.54 449.348 856.892 449.18 857.376 449.1L856.01 448.079V446.124H858.795L859.02 451.193C859.308 450.109 859.764 449.163 860.387 448.356C861.01 447.537 861.742 446.902 862.584 446.453C863.426 445.991 864.303 445.76 865.214 445.76C866.782 445.76 867.999 446.343 868.864 447.508C869.729 448.661 870.133 450.426 870.076 452.802H866.927C866.904 451.337 866.656 450.299 866.183 449.688C865.721 449.077 864.977 448.771 863.951 448.771C863.028 448.771 862.123 449.128 861.235 449.844C860.346 450.547 859.677 451.401 859.228 452.404V461.055C859.228 461.424 859.141 461.724 858.968 461.955C858.807 462.174 858.541 462.329 858.172 462.422L859.228 463.062V464.688H856.01ZM880.754 472.872C879.001 472.872 877.455 472.647 876.117 472.197C874.791 471.747 873.753 471.107 873.003 470.276C872.253 469.458 871.879 468.489 871.879 467.37C871.879 466.585 872.052 465.899 872.398 465.311C872.755 464.734 873.251 464.273 873.886 463.927C874.52 463.569 875.252 463.362 876.083 463.304L876.809 463.391C876.521 463.575 876.239 463.8 875.962 464.065C875.696 464.331 875.477 464.671 875.304 465.086C875.131 465.513 875.045 466.043 875.045 466.678C875.045 467.301 875.212 467.872 875.546 468.391C875.893 468.91 876.481 469.325 877.311 469.636C878.142 469.959 879.278 470.121 880.72 470.121C882.6 470.121 883.961 469.832 884.803 469.256C885.645 468.679 886.066 467.866 886.066 466.816C886.066 466.136 885.841 465.634 885.391 465.311C884.941 464.988 884.059 464.74 882.744 464.567L878.263 463.979C876.74 463.783 875.604 463.489 874.854 463.096C874.116 462.693 873.626 462.26 873.384 461.799C873.153 461.326 873.038 460.893 873.038 460.501C873.038 459.936 873.182 459.463 873.47 459.082C873.77 458.702 874.145 458.402 874.595 458.183C875.056 457.952 875.529 457.796 876.014 457.716C876.51 457.623 876.948 457.595 877.329 457.629C876.936 457.791 876.619 458.016 876.377 458.304C876.135 458.581 876.014 458.973 876.014 459.48C876.014 460.023 876.233 460.432 876.671 460.709C877.121 460.974 877.876 461.176 878.938 461.314L883.436 461.868C885.028 462.076 886.244 462.433 887.086 462.941C887.94 463.437 888.522 464.019 888.834 464.688C889.145 465.357 889.301 466.055 889.301 466.782C889.301 467.785 889.093 468.667 888.678 469.429C888.274 470.19 887.692 470.824 886.931 471.332C886.181 471.839 885.281 472.22 884.232 472.474C883.194 472.739 882.034 472.872 880.754 472.872ZM880.633 458.39C878.442 458.39 876.7 457.825 875.408 456.695C874.116 455.565 873.47 454.042 873.47 452.127C873.47 450.178 874.122 448.638 875.425 447.508C876.74 446.366 878.488 445.807 880.668 445.83C882.086 445.841 883.326 446.101 884.387 446.608C885.46 447.116 886.296 447.837 886.896 448.771C887.496 449.705 887.796 450.824 887.796 452.127C887.796 454.054 887.15 455.582 885.858 456.712C884.578 457.831 882.836 458.39 880.633 458.39ZM880.668 455.778C882.029 455.778 883.055 455.467 883.747 454.844C884.439 454.209 884.785 453.298 884.785 452.11C884.785 450.945 884.434 450.045 883.73 449.411C883.026 448.765 881.983 448.442 880.598 448.442C879.203 448.442 878.165 448.754 877.484 449.376C876.815 449.999 876.481 450.905 876.481 452.093C876.481 453.269 876.833 454.18 877.536 454.826C878.24 455.461 879.284 455.778 880.668 455.778ZM882.727 446.504L882.502 446.331C882.605 445.42 882.876 444.67 883.315 444.082C883.765 443.482 884.312 443.038 884.958 442.75C885.604 442.45 886.273 442.3 886.965 442.3C887.323 442.3 887.606 442.312 887.813 442.335C888.032 442.358 888.211 442.398 888.349 442.456V445.553C887.992 445.495 887.657 445.449 887.346 445.414C887.035 445.38 886.66 445.363 886.221 445.363C885.76 445.363 885.328 445.391 884.924 445.449C884.52 445.507 884.139 445.616 883.782 445.778C883.424 445.939 883.073 446.181 882.727 446.504ZM898.25 465.242C896.473 465.242 895.066 464.769 894.028 463.823C893.002 462.866 892.488 461.58 892.488 459.965C892.488 458.558 892.944 457.41 893.855 456.522C894.778 455.622 896.179 454.994 898.059 454.636C898.786 454.498 899.524 454.382 900.274 454.29C901.024 454.198 901.75 454.123 902.454 454.065C903.157 453.996 903.798 453.95 904.374 453.927V452.473C904.374 451.055 904.046 450.04 903.388 449.428C902.742 448.817 901.733 448.511 900.36 448.511C898.919 448.511 897.829 448.811 897.09 449.411C896.364 449.999 896.024 451.014 896.07 452.456H893.059C892.921 451.118 893.134 449.953 893.699 448.961C894.276 447.958 895.135 447.179 896.277 446.626C897.431 446.072 898.797 445.795 900.378 445.795C902.708 445.795 904.472 446.372 905.672 447.525C906.871 448.667 907.471 450.351 907.471 452.577V465.034H904.392L904.374 460.934C904.132 461.776 903.717 462.525 903.129 463.183C902.54 463.829 901.825 464.336 900.983 464.705C900.153 465.063 899.242 465.242 898.25 465.242ZM899.167 462.698C899.939 462.698 900.695 462.554 901.433 462.266C902.183 461.966 902.829 461.58 903.371 461.107C903.913 460.622 904.247 460.103 904.374 459.55V455.882C903.959 455.905 903.475 455.951 902.921 456.02C902.379 456.078 901.837 456.153 901.295 456.245C900.753 456.326 900.274 456.412 899.859 456.505C898.382 456.828 897.35 457.243 896.762 457.75C896.173 458.258 895.879 458.938 895.879 459.792C895.879 460.692 896.162 461.401 896.727 461.92C897.304 462.427 898.117 462.687 899.167 462.698ZM912.735 465.034V446.124H915.52L915.849 452.975L915.52 451.816C915.774 449.867 916.431 448.373 917.492 447.335C918.554 446.285 919.943 445.76 921.662 445.76C923.415 445.76 924.753 446.326 925.676 447.456C926.61 448.586 927.077 450.213 927.077 452.335V465.034H923.859V453.39C923.859 451.776 923.594 450.605 923.063 449.878C922.544 449.14 921.697 448.771 920.52 448.771C919.54 448.771 918.652 449.053 917.856 449.619C917.06 450.172 916.426 450.945 915.953 451.937V465.034H912.735ZM939.261 464.584V451.228C939.261 450.651 939.365 450.167 939.573 449.774C939.78 449.371 940.184 449.146 940.784 449.1L939.261 448.511L939.14 447.041L942.427 446.158L942.376 464.584H939.261ZM933.102 465.034V462.422H947.998V465.034H933.102ZM932.583 449.1V446.158H942.427L941.614 449.1H932.583ZM940.697 442.837C939.994 442.837 939.394 442.594 938.898 442.11C938.414 441.625 938.171 440.997 938.171 440.224C938.171 439.44 938.414 438.805 938.898 438.321C939.394 437.825 939.994 437.577 940.697 437.577C941.401 437.577 941.995 437.825 942.479 438.321C942.975 438.805 943.223 439.44 943.223 440.224C943.223 440.997 942.975 441.625 942.479 442.11C941.983 442.594 941.389 442.837 940.697 442.837ZM959.784 465.346C958.077 465.346 956.595 464.948 955.338 464.152C954.081 463.344 953.1 462.214 952.397 460.761C951.705 459.296 951.359 457.572 951.359 455.588C951.359 453.5 951.71 451.729 952.414 450.276C953.129 448.811 954.11 447.698 955.355 446.937C956.613 446.176 958.043 445.795 959.646 445.795C961.226 445.795 962.564 446.13 963.66 446.799C964.756 447.468 965.592 448.356 966.169 449.463C966.745 450.57 967.045 451.781 967.068 453.096H963.868C963.844 452.543 963.746 452 963.573 451.47C963.412 450.928 963.158 450.443 962.812 450.017C962.478 449.578 962.045 449.232 961.515 448.979C960.984 448.725 960.338 448.598 959.577 448.598C957.904 448.586 956.659 449.198 955.84 450.432C955.021 451.654 954.611 453.338 954.611 455.484C954.611 457.768 955.055 459.515 955.944 460.726C956.843 461.926 958.158 462.525 959.888 462.525C960.742 462.525 961.451 462.399 962.016 462.145C962.581 461.88 963.014 461.534 963.314 461.107C963.614 460.668 963.793 460.196 963.85 459.688H966.982C966.947 460.772 966.613 461.741 965.978 462.595C965.355 463.448 964.508 464.123 963.435 464.619C962.374 465.103 961.157 465.346 959.784 465.346ZM998.391 464.584V451.228C998.391 450.651 998.495 450.167 998.703 449.774C998.91 449.371 999.314 449.146 999.914 449.1L998.391 448.511L998.27 447.041L1001.56 446.158L1001.51 464.584H998.391ZM992.232 465.034V462.422H1007.13V465.034H992.232ZM991.713 449.1V446.158H1001.56L1000.74 449.1H991.713ZM999.827 442.837C999.124 442.837 998.524 442.594 998.028 442.11C997.543 441.625 997.301 440.997 997.301 440.224C997.301 439.44 997.543 438.805 998.028 438.321C998.524 437.825 999.124 437.577 999.827 437.577C1000.53 437.577 1001.12 437.825 1001.61 438.321C1002.11 438.805 1002.35 439.44 1002.35 440.224C1002.35 440.997 1002.11 441.625 1001.61 442.11C1001.11 442.594 1000.52 442.837 999.827 442.837ZM1011.28 465.034V446.124H1014.07L1014.4 452.975L1014.07 451.816C1014.32 449.867 1014.98 448.373 1016.04 447.335C1017.1 446.285 1018.49 445.76 1020.21 445.76C1021.97 445.76 1023.3 446.326 1024.23 447.456C1025.16 448.586 1025.63 450.213 1025.63 452.335V465.034H1022.41V453.39C1022.41 451.776 1022.14 450.605 1021.61 449.878C1021.09 449.14 1020.25 448.771 1019.07 448.771C1018.09 448.771 1017.2 449.053 1016.41 449.619C1015.61 450.172 1014.98 450.945 1014.5 451.937V465.034H1011.28ZM1040.15 465.294C1038.95 465.294 1037.91 465.103 1037.05 464.723C1036.2 464.342 1035.54 463.748 1035.08 462.941C1034.63 462.122 1034.4 461.061 1034.4 459.757V451.435C1034.4 451.124 1034.45 450.795 1034.56 450.449C1034.66 450.103 1034.83 449.797 1035.06 449.532C1035.3 449.267 1035.62 449.105 1036.01 449.048L1034.39 446.902L1034.45 446.314L1035.23 439.532H1037.74V459.255C1037.74 460.478 1037.99 461.291 1038.49 461.695C1038.99 462.087 1039.83 462.283 1040.99 462.283C1041.79 462.283 1042.48 462.237 1043.05 462.145C1043.64 462.053 1044.16 461.931 1044.61 461.781C1045.07 461.632 1045.51 461.47 1045.93 461.297V464.377C1045.23 464.63 1044.43 464.85 1043.52 465.034C1042.62 465.207 1041.5 465.294 1040.15 465.294ZM1029.99 449.048V446.141H1044.32V449.048H1029.99ZM1058.35 465.294C1056.79 465.294 1055.38 464.919 1054.1 464.169C1052.83 463.419 1051.81 462.318 1051.05 460.865C1050.3 459.4 1049.93 457.612 1049.93 455.501C1049.93 453.46 1050.28 451.712 1050.98 450.259C1051.7 448.806 1052.67 447.698 1053.91 446.937C1055.15 446.164 1056.56 445.778 1058.14 445.778C1060.45 445.778 1062.3 446.545 1063.7 448.079C1065.09 449.601 1065.79 451.758 1065.79 454.55C1065.79 454.919 1065.78 455.224 1065.76 455.467C1065.73 455.709 1065.72 455.962 1065.7 456.228H1053.07C1053.1 457.646 1053.36 458.817 1053.85 459.74C1054.36 460.663 1055.01 461.355 1055.81 461.816C1056.62 462.266 1057.48 462.491 1058.4 462.491C1059.53 462.491 1060.43 462.272 1061.09 461.833C1061.74 461.395 1062.18 460.674 1062.4 459.671H1065.43C1065.31 460.847 1064.94 461.856 1064.32 462.698C1063.71 463.529 1062.9 464.169 1061.88 464.619C1060.87 465.069 1059.69 465.294 1058.35 465.294ZM1053.07 455.034C1053.17 454.55 1053.37 454.227 1053.68 454.065C1053.99 453.892 1054.41 453.806 1054.94 453.806H1062.54C1062.53 452.087 1062.16 450.789 1061.43 449.913C1060.7 449.025 1059.62 448.581 1058.18 448.581C1056.52 448.581 1055.25 449.157 1054.39 450.311C1053.54 451.464 1053.1 453.039 1053.07 455.034ZM1069.12 465.034V462.422H1082.28V465.034H1069.12ZM1068.93 449.1V446.124H1074.46L1074.58 449.1H1068.93ZM1072.82 464.688V450.934C1072.82 450.299 1072.92 449.855 1073.13 449.601C1073.35 449.348 1073.7 449.18 1074.19 449.1L1072.82 448.079V446.124H1075.6L1075.83 451.193C1076.12 450.109 1076.57 449.163 1077.2 448.356C1077.82 447.537 1078.55 446.902 1079.39 446.453C1080.24 445.991 1081.11 445.76 1082.02 445.76C1083.59 445.76 1084.81 446.343 1085.67 447.508C1086.54 448.661 1086.94 450.426 1086.89 452.802H1083.74C1083.71 451.337 1083.47 450.299 1082.99 449.688C1082.53 449.077 1081.79 448.771 1080.76 448.771C1079.84 448.771 1078.93 449.128 1078.04 449.844C1077.16 450.547 1076.49 451.401 1076.04 452.404V461.055C1076.04 461.424 1075.95 461.724 1075.78 461.955C1075.62 462.174 1075.35 462.329 1074.98 462.422L1076.04 463.062V464.688H1072.82ZM1090.12 465.034V446.124H1092.91L1093.24 452.975L1092.91 451.816C1093.16 449.867 1093.82 448.373 1094.88 447.335C1095.94 446.285 1097.33 445.76 1099.05 445.76C1100.81 445.76 1102.14 446.326 1103.07 447.456C1104 448.586 1104.47 450.213 1104.47 452.335V465.034H1101.25V453.39C1101.25 451.776 1100.98 450.605 1100.45 449.878C1099.93 449.14 1099.09 448.771 1097.91 448.771C1096.93 448.771 1096.04 449.053 1095.25 449.619C1094.45 450.172 1093.82 450.945 1093.34 451.937V465.034H1090.12ZM1117.48 465.294C1115.92 465.294 1114.51 464.919 1113.23 464.169C1111.96 463.419 1110.94 462.318 1110.18 460.865C1109.43 459.4 1109.06 457.612 1109.06 455.501C1109.06 453.46 1109.41 451.712 1110.11 450.259C1110.83 448.806 1111.8 447.698 1113.04 446.937C1114.28 446.164 1115.69 445.778 1117.27 445.778C1119.58 445.778 1121.43 446.545 1122.83 448.079C1124.22 449.601 1124.92 451.758 1124.92 454.55C1124.92 454.919 1124.91 455.224 1124.89 455.467C1124.86 455.709 1124.85 455.962 1124.83 456.228H1112.2C1112.23 457.646 1112.49 458.817 1112.98 459.74C1113.49 460.663 1114.14 461.355 1114.94 461.816C1115.75 462.266 1116.61 462.491 1117.53 462.491C1118.66 462.491 1119.56 462.272 1120.22 461.833C1120.87 461.395 1121.31 460.674 1121.53 459.671H1124.56C1124.44 460.847 1124.07 461.856 1123.45 462.698C1122.84 463.529 1122.03 464.169 1121.01 464.619C1120 465.069 1118.82 465.294 1117.48 465.294ZM1112.2 455.034C1112.3 454.55 1112.5 454.227 1112.81 454.065C1113.12 453.892 1113.54 453.806 1114.07 453.806H1121.67C1121.66 452.087 1121.29 450.789 1120.56 449.913C1119.83 449.025 1118.75 448.581 1117.31 448.581C1115.65 448.581 1114.38 449.157 1113.52 450.311C1112.67 451.464 1112.23 453.039 1112.2 455.034ZM1138.7 465.294C1137.5 465.294 1136.46 465.103 1135.6 464.723C1134.75 464.342 1134.09 463.748 1133.63 462.941C1133.18 462.122 1132.95 461.061 1132.95 459.757V451.435C1132.95 451.124 1133 450.795 1133.11 450.449C1133.21 450.103 1133.38 449.797 1133.61 449.532C1133.85 449.267 1134.17 449.105 1134.56 449.048L1132.94 446.902L1133 446.314L1133.78 439.532H1136.29V459.255C1136.29 460.478 1136.54 461.291 1137.04 461.695C1137.54 462.087 1138.38 462.283 1139.54 462.283C1140.34 462.283 1141.03 462.237 1141.6 462.145C1142.19 462.053 1142.71 461.931 1143.16 461.781C1143.62 461.632 1144.06 461.47 1144.48 461.297V464.377C1143.78 464.63 1142.98 464.85 1142.07 465.034C1141.17 465.207 1140.05 465.294 1138.7 465.294ZM1128.54 449.048V446.141H1142.87V449.048H1128.54ZM1167.67 465.034V462.422H1180.83V465.034H1167.67ZM1167.48 449.1V446.124H1173.01L1173.13 449.1H1167.48ZM1171.37 464.688V450.934C1171.37 450.299 1171.47 449.855 1171.68 449.601C1171.9 449.348 1172.25 449.18 1172.74 449.1L1171.37 448.079V446.124H1174.15L1174.38 451.193C1174.67 450.109 1175.12 449.163 1175.75 448.356C1176.37 447.537 1177.1 446.902 1177.94 446.453C1178.79 445.991 1179.66 445.76 1180.57 445.76C1182.14 445.76 1183.36 446.343 1184.22 447.508C1185.09 448.661 1185.49 450.426 1185.44 452.802H1182.29C1182.26 451.337 1182.02 450.299 1181.54 449.688C1181.08 449.077 1180.34 448.771 1179.31 448.771C1178.39 448.771 1177.48 449.128 1176.59 449.844C1175.71 450.547 1175.04 451.401 1174.59 452.404V461.055C1174.59 461.424 1174.5 461.724 1174.33 461.955C1174.17 462.174 1173.9 462.329 1173.53 462.422L1174.59 463.062V464.688H1171.37ZM1193.9 465.242C1192.12 465.242 1190.72 464.769 1189.68 463.823C1188.65 462.866 1188.14 461.58 1188.14 459.965C1188.14 458.558 1188.59 457.41 1189.5 456.522C1190.43 455.622 1191.83 454.994 1193.71 454.636C1194.44 454.498 1195.17 454.382 1195.92 454.29C1196.67 454.198 1197.4 454.123 1198.1 454.065C1198.81 453.996 1199.45 453.95 1200.02 453.927V452.473C1200.02 451.055 1199.7 450.04 1199.04 449.428C1198.39 448.817 1197.38 448.511 1196.01 448.511C1194.57 448.511 1193.48 448.811 1192.74 449.411C1192.01 449.999 1191.67 451.014 1191.72 452.456H1188.71C1188.57 451.118 1188.78 449.953 1189.35 448.961C1189.93 447.958 1190.79 447.179 1191.93 446.626C1193.08 446.072 1194.45 445.795 1196.03 445.795C1198.36 445.795 1200.12 446.372 1201.32 447.525C1202.52 448.667 1203.12 450.351 1203.12 452.577V465.034H1200.04L1200.02 460.934C1199.78 461.776 1199.37 462.525 1198.78 463.183C1198.19 463.829 1197.47 464.336 1196.63 464.705C1195.8 465.063 1194.89 465.242 1193.9 465.242ZM1194.82 462.698C1195.59 462.698 1196.34 462.554 1197.08 462.266C1197.83 461.966 1198.48 461.58 1199.02 461.107C1199.56 460.622 1199.9 460.103 1200.02 459.55V455.882C1199.61 455.905 1199.12 455.951 1198.57 456.02C1198.03 456.078 1197.49 456.153 1196.94 456.245C1196.4 456.326 1195.92 456.412 1195.51 456.505C1194.03 456.828 1193 457.243 1192.41 457.75C1191.82 458.258 1191.53 458.938 1191.53 459.792C1191.53 460.692 1191.81 461.401 1192.38 461.92C1192.95 462.427 1193.77 462.687 1194.82 462.698ZM1214.49 465.242C1213.08 465.242 1211.84 464.85 1210.75 464.065C1209.68 463.281 1208.84 462.168 1208.23 460.726C1207.63 459.273 1207.33 457.543 1207.33 455.536C1207.33 453.54 1207.67 451.816 1208.35 450.363C1209.04 448.898 1209.98 447.773 1211.15 446.989C1212.34 446.193 1213.68 445.795 1215.17 445.795C1215.96 445.795 1216.69 445.962 1217.35 446.297C1218.02 446.62 1218.57 447.064 1219.02 447.629C1219.49 448.194 1219.8 448.846 1219.96 449.584L1220.96 450.155L1219.82 451.453C1219.65 450.807 1219.35 450.276 1218.94 449.861C1218.53 449.434 1218.07 449.117 1217.55 448.909C1217.05 448.702 1216.54 448.598 1216.03 448.598C1214.43 448.598 1213.12 449.203 1212.12 450.415C1211.13 451.626 1210.63 453.35 1210.63 455.588C1210.63 456.96 1210.82 458.166 1211.2 459.204C1211.58 460.242 1212.13 461.055 1212.85 461.643C1213.57 462.22 1214.45 462.508 1215.48 462.508C1216.05 462.508 1216.63 462.387 1217.21 462.145C1217.78 461.891 1218.3 461.51 1218.75 461.003C1219.21 460.495 1219.54 459.861 1219.73 459.1L1219.91 460.121L1219.75 460.761C1219.62 461.626 1219.3 462.399 1218.78 463.079C1218.26 463.748 1217.63 464.279 1216.88 464.671C1216.13 465.051 1215.33 465.242 1214.49 465.242ZM1219.77 465.034L1219.73 459.1V438.113H1222.93L1222.95 465.034H1219.77ZM1234.91 464.584V451.228C1234.91 450.651 1235.01 450.167 1235.22 449.774C1235.43 449.371 1235.83 449.146 1236.43 449.1L1234.91 448.511L1234.79 447.041L1238.08 446.158L1238.03 464.584H1234.91ZM1228.75 465.034V462.422H1243.65V465.034H1228.75ZM1228.23 449.1V446.158H1238.08L1237.26 449.1H1228.23ZM1236.35 442.837C1235.64 442.837 1235.04 442.594 1234.55 442.11C1234.06 441.625 1233.82 440.997 1233.82 440.224C1233.82 439.44 1234.06 438.805 1234.55 438.321C1235.04 437.825 1235.64 437.577 1236.35 437.577C1237.05 437.577 1237.64 437.825 1238.13 438.321C1238.62 438.805 1238.87 439.44 1238.87 440.224C1238.87 440.997 1238.62 441.625 1238.13 442.11C1237.63 442.594 1237.04 442.837 1236.35 442.837ZM1254.86 465.294C1253.26 465.294 1251.84 464.919 1250.59 464.169C1249.36 463.408 1248.39 462.301 1247.68 460.847C1246.98 459.382 1246.63 457.595 1246.63 455.484C1246.63 453.454 1246.99 451.718 1247.72 450.276C1248.44 448.823 1249.43 447.71 1250.68 446.937C1251.92 446.164 1253.32 445.778 1254.86 445.778C1256.51 445.778 1257.95 446.164 1259.19 446.937C1260.42 447.71 1261.38 448.823 1262.06 450.276C1262.75 451.718 1263.1 453.454 1263.1 455.484C1263.1 457.606 1262.73 459.4 1261.99 460.865C1261.26 462.318 1260.28 463.419 1259.03 464.169C1257.79 464.919 1256.4 465.294 1254.86 465.294ZM1254.86 462.456C1256.33 462.456 1257.52 461.885 1258.43 460.743C1259.35 459.59 1259.81 457.837 1259.81 455.484C1259.81 453.246 1259.36 451.545 1258.46 450.38C1257.57 449.203 1256.37 448.615 1254.86 448.615C1253.4 448.615 1252.2 449.203 1251.28 450.38C1250.37 451.545 1249.91 453.246 1249.91 455.484C1249.91 457.756 1250.37 459.486 1251.28 460.674C1252.2 461.862 1253.4 462.456 1254.86 462.456ZM1294.49 465.328C1293.59 465.328 1292.7 465.23 1291.83 465.034C1290.95 464.85 1290.14 464.544 1289.4 464.117C1288.67 463.679 1288.06 463.091 1287.59 462.352C1287.13 461.614 1286.85 460.692 1286.76 459.584H1290.08C1290.19 460.668 1290.68 461.453 1291.55 461.937C1292.41 462.422 1293.41 462.664 1294.53 462.664C1295.82 462.664 1296.84 462.485 1297.6 462.128C1298.38 461.758 1298.76 461.061 1298.76 460.034C1298.76 459.423 1298.58 458.927 1298.21 458.546C1297.85 458.166 1297.33 457.848 1296.64 457.595C1295.96 457.329 1295.13 457.076 1294.14 456.833C1293.34 456.637 1292.54 456.418 1291.74 456.176C1290.96 455.922 1290.24 455.593 1289.59 455.19C1288.96 454.786 1288.45 454.25 1288.07 453.581C1287.69 452.912 1287.5 452.058 1287.5 451.02C1287.5 449.994 1287.77 449.088 1288.31 448.304C1288.87 447.519 1289.66 446.908 1290.7 446.47C1291.74 446.032 1293 445.812 1294.47 445.812C1295.66 445.812 1296.76 445.997 1297.78 446.366C1298.8 446.724 1299.64 447.306 1300.29 448.113C1300.94 448.909 1301.31 449.97 1301.38 451.297H1298.14C1298.11 450.743 1297.96 450.253 1297.69 449.826C1297.43 449.4 1297.03 449.065 1296.5 448.823C1295.97 448.581 1295.29 448.459 1294.46 448.459C1293.69 448.459 1293.03 448.54 1292.45 448.702C1291.87 448.863 1291.42 449.128 1291.1 449.498C1290.78 449.867 1290.62 450.363 1290.62 450.985C1290.62 451.597 1290.81 452.099 1291.19 452.491C1291.58 452.883 1292.11 453.206 1292.8 453.46C1293.48 453.702 1294.25 453.932 1295.13 454.152C1295.89 454.336 1296.68 454.555 1297.48 454.809C1298.29 455.063 1299.04 455.392 1299.72 455.795C1300.4 456.199 1300.94 456.724 1301.36 457.37C1301.79 458.004 1302 458.806 1302 459.775C1301.99 461.435 1301.38 462.779 1300.18 463.806C1298.99 464.821 1297.1 465.328 1294.49 465.328ZM1316.09 465.294C1314.89 465.294 1313.85 465.103 1312.99 464.723C1312.14 464.342 1311.48 463.748 1311.02 462.941C1310.57 462.122 1310.34 461.061 1310.34 459.757V451.435C1310.34 451.124 1310.39 450.795 1310.5 450.449C1310.6 450.103 1310.77 449.797 1311 449.532C1311.24 449.267 1311.56 449.105 1311.95 449.048L1310.33 446.902L1310.39 446.314L1311.17 439.532H1313.68V459.255C1313.68 460.478 1313.93 461.291 1314.43 461.695C1314.93 462.087 1315.77 462.283 1316.93 462.283C1317.73 462.283 1318.42 462.237 1318.99 462.145C1319.58 462.053 1320.1 461.931 1320.55 461.781C1321.01 461.632 1321.45 461.47 1321.87 461.297V464.377C1321.17 464.63 1320.37 464.85 1319.46 465.034C1318.56 465.207 1317.44 465.294 1316.09 465.294ZM1305.93 449.048V446.141H1320.26V449.048H1305.93ZM1331.87 465.242C1330.09 465.242 1328.69 464.769 1327.65 463.823C1326.62 462.866 1326.11 461.58 1326.11 459.965C1326.11 458.558 1326.56 457.41 1327.47 456.522C1328.4 455.622 1329.8 454.994 1331.68 454.636C1332.41 454.498 1333.14 454.382 1333.89 454.29C1334.64 454.198 1335.37 454.123 1336.07 454.065C1336.78 453.996 1337.42 453.95 1337.99 453.927V452.473C1337.99 451.055 1337.66 450.04 1337.01 449.428C1336.36 448.817 1335.35 448.511 1333.98 448.511C1332.54 448.511 1331.45 448.811 1330.71 449.411C1329.98 449.999 1329.64 451.014 1329.69 452.456H1326.68C1326.54 451.118 1326.75 449.953 1327.32 448.961C1327.9 447.958 1328.75 447.179 1329.9 446.626C1331.05 446.072 1332.42 445.795 1334 445.795C1336.33 445.795 1338.09 446.372 1339.29 447.525C1340.49 448.667 1341.09 450.351 1341.09 452.577V465.034H1338.01L1337.99 460.934C1337.75 461.776 1337.34 462.525 1336.75 463.183C1336.16 463.829 1335.44 464.336 1334.6 464.705C1333.77 465.063 1332.86 465.242 1331.87 465.242ZM1332.79 462.698C1333.56 462.698 1334.31 462.554 1335.05 462.266C1335.8 461.966 1336.45 461.58 1336.99 461.107C1337.53 460.622 1337.87 460.103 1337.99 459.55V455.882C1337.58 455.905 1337.09 455.951 1336.54 456.02C1336 456.078 1335.46 456.153 1334.91 456.245C1334.37 456.326 1333.89 456.412 1333.48 456.505C1332 456.828 1330.97 457.243 1330.38 457.75C1329.79 458.258 1329.5 458.938 1329.5 459.792C1329.5 460.692 1329.78 461.401 1330.35 461.92C1330.92 462.427 1331.74 462.687 1332.79 462.698ZM1355.51 465.294C1354.31 465.294 1353.27 465.103 1352.41 464.723C1351.56 464.342 1350.9 463.748 1350.44 462.941C1349.99 462.122 1349.76 461.061 1349.76 459.757V451.435C1349.76 451.124 1349.81 450.795 1349.92 450.449C1350.02 450.103 1350.19 449.797 1350.42 449.532C1350.66 449.267 1350.98 449.105 1351.37 449.048L1349.75 446.902L1349.81 446.314L1350.59 439.532H1353.1V459.255C1353.1 460.478 1353.35 461.291 1353.85 461.695C1354.35 462.087 1355.19 462.283 1356.35 462.283C1357.15 462.283 1357.84 462.237 1358.41 462.145C1359 462.053 1359.52 461.931 1359.97 461.781C1360.43 461.632 1360.87 461.47 1361.29 461.297V464.377C1360.59 464.63 1359.79 464.85 1358.88 465.034C1357.98 465.207 1356.86 465.294 1355.51 465.294ZM1345.35 449.048V446.141H1359.68V449.048H1345.35ZM1372.88 464.584V451.228C1372.88 450.651 1372.98 450.167 1373.19 449.774C1373.4 449.371 1373.8 449.146 1374.4 449.1L1372.88 448.511L1372.76 447.041L1376.05 446.158L1375.99 464.584H1372.88ZM1366.72 465.034V462.422H1381.62V465.034H1366.72ZM1366.2 449.1V446.158H1376.05L1375.23 449.1H1366.2ZM1374.32 442.837C1373.61 442.837 1373.01 442.594 1372.52 442.11C1372.03 441.625 1371.79 440.997 1371.79 440.224C1371.79 439.44 1372.03 438.805 1372.52 438.321C1373.01 437.825 1373.61 437.577 1374.32 437.577C1375.02 437.577 1375.61 437.825 1376.1 438.321C1376.59 438.805 1376.84 439.44 1376.84 440.224C1376.84 440.997 1376.59 441.625 1376.1 442.11C1375.6 442.594 1375.01 442.837 1374.32 442.837ZM1392.83 465.294C1391.23 465.294 1389.81 464.919 1388.56 464.169C1387.33 463.408 1386.36 462.301 1385.65 460.847C1384.95 459.382 1384.6 457.595 1384.6 455.484C1384.6 453.454 1384.96 451.718 1385.69 450.276C1386.41 448.823 1387.4 447.71 1388.65 446.937C1389.89 446.164 1391.29 445.778 1392.83 445.778C1394.48 445.778 1395.92 446.164 1397.16 446.937C1398.39 447.71 1399.35 448.823 1400.03 450.276C1400.72 451.718 1401.07 453.454 1401.07 455.484C1401.07 457.606 1400.7 459.4 1399.96 460.865C1399.23 462.318 1398.25 463.419 1397 464.169C1395.76 464.919 1394.37 465.294 1392.83 465.294ZM1392.83 462.456C1394.3 462.456 1395.49 461.885 1396.4 460.743C1397.32 459.59 1397.78 457.837 1397.78 455.484C1397.78 453.246 1397.33 451.545 1396.43 450.38C1395.54 449.203 1394.34 448.615 1392.83 448.615C1391.37 448.615 1390.17 449.203 1389.25 450.38C1388.34 451.545 1387.88 453.246 1387.88 455.484C1387.88 457.756 1388.34 459.486 1389.25 460.674C1390.17 461.862 1391.37 462.456 1392.83 462.456ZM1405.48 465.034V446.124H1408.27L1408.6 452.975L1408.27 451.816C1408.52 449.867 1409.18 448.373 1410.24 447.335C1411.3 446.285 1412.69 445.76 1414.41 445.76C1416.16 445.76 1417.5 446.326 1418.43 447.456C1419.36 448.586 1419.83 450.213 1419.83 452.335V465.034H1416.61V453.39C1416.61 451.776 1416.34 450.605 1415.81 449.878C1415.29 449.14 1414.45 448.771 1413.27 448.771C1412.29 448.771 1411.4 449.053 1410.61 449.619C1409.81 450.172 1409.17 450.945 1408.7 451.937V465.034H1405.48Z" fill="white"/>
</g>
</svg>
